<?xml version="1.0" encoding="UTF-8" standalone="no"?>
<svg width="164px" height="21px" viewBox="0 0 164 21" version="1.1" xmlns="http://www.w3.org/2000/svg" xmlns:xlink="http://www.w3.org/1999/xlink" xmlns:sketch="http://www.bohemiancoding.com/sketch/ns">
    <!-- Generator: Sketch 3.5.1 (25234) - http://www.bohemiancoding.com/sketch -->
    <title>paypal_monogram-wordmark-3d copy</title>
    <desc>Created with Sketch.</desc>
    <defs>
        <filter x="-50%" y="-50%" width="200%" height="200%" filterUnits="objectBoundingBox" id="filter-1">
            <feOffset dx="0" dy="-1" in="SourceAlpha" result="shadowOffsetOuter1"></feOffset>
            <feGaussianBlur stdDeviation="0" in="shadowOffsetOuter1" result="shadowBlurOuter1"></feGaussianBlur>
            <feColorMatrix values="0 0 0 0 0   0 0 0 0 0.42745098   0 0 0 0 0.607843137  0 0 0 0.7 0" in="shadowBlurOuter1" type="matrix" result="shadowMatrixOuter1"></feColorMatrix>
            <feMerge>
                <feMergeNode in="shadowMatrixOuter1"></feMergeNode>
                <feMergeNode in="SourceGraphic"></feMergeNode>
            </feMerge>
        </filter>
        <filter x="-50%" y="-50%" width="200%" height="200%" filterUnits="objectBoundingBox" id="filter-2">
            <feOffset dx="0" dy="-1" in="SourceAlpha" result="shadowOffsetOuter1"></feOffset>
            <feGaussianBlur stdDeviation="0" in="shadowOffsetOuter1" result="shadowBlurOuter1"></feGaussianBlur>
            <feColorMatrix values="0 0 0 0 0   0 0 0 0 0.42745098   0 0 0 0 0.607843137  0 0 0 0.7 0" in="shadowBlurOuter1" type="matrix" result="shadowMatrixOuter1"></feColorMatrix>
            <feMerge>
                <feMergeNode in="shadowMatrixOuter1"></feMergeNode>
                <feMergeNode in="SourceGraphic"></feMergeNode>
            </feMerge>
        </filter>
    </defs>
    <g id="Page-1" stroke="none" stroke-width="1" fill="none" fill-rule="evenodd" sketch:type="MSPage">
        <g id="paypal_monogram-wordmark-3d-copy" sketch:type="MSArtboardGroup">
            <g id="Group" sketch:type="MSLayerGroup" transform="translate(0.000000, 1.000000)">
                <g id="logo" fill="#FFFFFF" sketch:type="MSShapeGroup">
                    <g id="wordmark" transform="translate(21.000000, 3.000000)">
                        <path d="M39.4467324,4.33786686 C39.2013254,6.00075089 37.9702098,6.00075089 36.7793153,6.00075089 L36.1016771,6.00075089 L36.5767525,2.89621975 C36.6056068,2.70864932 36.7624108,2.57037624 36.9466118,2.57037624 L37.2573053,2.57037624 C38.0681394,2.57037624 38.8335063,2.57037624 39.2284309,3.04681716 C39.4648027,3.33177994 39.5362098,3.7544146 39.4467324,4.33786686 M38.9285213,0 L34.4371646,0 C34.13026,0 33.8685314,0.230555324 33.8207324,0.543172713 L32.004662,12.4208299 C31.9688128,12.655293 32.1442701,12.8672115 32.3742299,12.8672115 L34.6790741,12.8672115 C34.8938781,12.8672115 35.0769133,12.7057927 35.1101394,12.4866599 L35.6254359,9.11940994 C35.6732349,8.80649195 35.9346721,8.57623722 36.2418681,8.57623722 L37.6630138,8.57623722 C40.6213053,8.57623722 42.328662,7.09972125 42.7748832,4.17284095 C42.9756972,2.89291322 42.7827525,1.88742748 42.2018781,1.18313658 C41.5632952,0.409408541 40.4309837,0 38.9285213,0" id="Fill-1"></path>
                        <path d="M7.44557353,4.33786686 C7.20021198,6.00075089 5.96903317,6.00075089 4.77865082,6.00075089 L4.10084682,6.00075089 L4.57612555,2.89621975 C4.60497447,2.70864932 4.76174943,2.57037624 4.9459163,2.57037624 L5.25655218,2.57037624 C6.06694467,2.57037624 6.83246105,2.57037624 7.22702108,3.04681716 C7.46334913,3.33177994 7.53503433,3.7544146 7.44557353,4.33786686 M6.92745852,0 L2.43693416,0 C2.12979512,0 1.86840639,0.230555324 1.82061625,0.543172713 L0.00459108671,12.4208299 C-0.030960112,12.655293 0.144464655,12.8672115 0.374673237,12.8672115 L2.51852708,12.8672115 C2.82566612,12.8672115 3.08705485,12.6363556 3.13484499,12.3237382 L3.62498529,9.11940994 C3.67277542,8.80649195 3.93416415,8.57623722 4.24101179,8.57623722 L5.66189413,8.57623722 C8.6199287,8.57623722 10.326969,7.09972125 10.7731074,4.17284095 C10.9738843,2.89291322 10.7809753,1.88742748 10.2002086,1.18313658 C9.56145266,0.409408541 8.42964236,0 6.92745852,0" id="Fill-3"></path>
                        <path d="M17.1738736,8.52603848 C16.9660646,9.79364187 15.990557,10.6443219 14.7463259,10.6443219 C14.1223158,10.6443219 13.6230495,10.4372129 13.302155,10.0458399 C12.9838837,9.65717236 12.8640947,9.10377946 12.9652304,8.48756249 C13.158758,7.23138166 14.1500043,6.35304704 15.3752907,6.35304704 C15.9858937,6.35304704 16.481954,6.56226021 16.8089691,6.95754085 C17.1386073,7.35582743 17.2680143,7.91312804 17.1738736,8.52603848 M20.1706374,4.20891258 L18.0202656,4.20891258 C17.836356,4.20891258 17.6789691,4.34718566 17.6504063,4.53505668 L17.5559741,5.15488078 L17.4055822,4.93033732 C16.9398334,4.23326067 15.9016626,4 14.8652405,4 C12.4892807,4 10.4595721,5.85706753 10.064356,8.46171144 C9.85887865,9.76087716 10.1506274,11.0026295 10.8652807,11.869241 C11.521351,12.6655135 12.4580947,12.9970683 13.5737932,12.9970683 C15.4889591,12.9970683 16.5513209,11.727962 16.5513209,11.727962 L16.45514,12.3444795 C16.4192907,12.5789426 16.594748,12.7911617 16.8249993,12.7911617 L18.7617329,12.7911617 C19.0686374,12.7911617 19.3300746,12.5606064 19.3778736,12.247989 L20.5407882,4.65499355 C20.5766374,4.4208311 20.4008887,4.20891258 20.1706374,4.20891258" id="Fill-5"></path>
                        <path d="M49.1768373,8.52603848 C48.9689341,9.79364187 47.9929842,10.6443219 46.7484805,10.6443219 C46.1241876,10.6443219 45.6244033,10.4372129 45.3033633,10.0458399 C44.9852393,9.65717236 44.865396,9.10377946 44.9665775,8.48756249 C45.1601929,7.23138166 46.151597,6.35304704 47.3774389,6.35304704 C47.9886104,6.35304704 48.484604,6.56226021 48.8120589,6.95754085 C49.141555,7.35582743 49.2710207,7.91312804 49.1768373,8.52603848 M52.1752515,4.20891258 L50.0239046,4.20891258 C49.8396201,4.20891258 49.6824534,4.34718566 49.6538776,4.53505668 L49.5594027,5.15488078 L49.4089425,4.93033732 C48.942691,4.23326067 47.904341,4 46.8671574,4 C44.490412,4 42.4594916,5.85706753 42.0643879,8.46171144 C41.8588174,9.76087716 42.1506984,11.0026295 42.8653841,11.869241 C43.5220435,12.6655135 44.4589203,12.9970683 45.5751247,12.9970683 C47.4914504,12.9970683 48.5540023,11.727962 48.5540023,11.727962 L48.4580694,12.3444795 C48.4219123,12.5789426 48.5977407,12.7911617 48.8280964,12.7911617 L50.7657081,12.7911617 C51.0727518,12.7911617 51.3340159,12.5606064 51.3818366,12.247989 L52.5452784,4.65499355 C52.5814355,4.4208311 52.4053155,4.20891258 52.1752515,4.20891258" id="Fill-7"></path>
                        <path d="M31.0247213,4 L28.8624247,4 C28.6554087,4 28.4620965,4.10610956 28.346051,4.28225743 L25.3626881,8.81160244 L24.0984326,4.45900649 C24.0194167,4.18666865 23.7762458,4 23.5004188,4 L21.3745686,4 C21.118277,4 20.9375025,4.26031409 21.0203089,4.5107086 L23.401576,11.7165394 L21.1617212,14.9746739 C20.9859034,15.2301785 21.1634706,15.5836766 21.4675801,15.5836766 L23.6278357,15.5836766 C23.8325191,15.5836766 24.0240818,15.4802724 24.1410021,15.3068299 L31.3329127,4.60629738 C31.5046485,4.35019159 31.3267897,4 31.0247213,4" id="Fill-9"></path>
                        <path d="M54.8478379,0.326144102 L53.004662,12.4208299 C52.9688128,12.655293 53.1442701,12.8672115 53.3742299,12.8672115 L55.2281897,12.8672115 C55.5353857,12.8672115 55.7968228,12.6363556 55.8446218,12.3237382 L57.6621495,0.44638156 C57.6979987,0.211918518 57.5225414,0 57.2922902,0 L55.2179887,0 C55.0334962,0 54.8766922,0.138273076 54.8478379,0.326144102" id="Fill-11"></path>
                    </g>
                    <g id="monogram">
                        <path d="M16.3957462,9.49576471 C16.5452539,8.70811765 16.5733763,8.00252941 16.4792524,7.39958824 C16.3796762,6.76252941 16.1403491,6.21870588 15.7678711,5.78370588 C15.5420312,5.52017647 15.2530595,5.29164706 14.9087039,5.10458824 C15.0183237,4.29870588 15.0140193,3.64311765 14.884599,3.07870588 C14.7546047,2.51282353 14.4911727,2.004 14.0796677,1.52311765 C13.2259528,0.526058824 11.672909,0.0204705882 9.46358081,0.0204705882 L3.39259145,0.0204705882 C2.97219064,0.0204705882 2.61980007,0.329294118 2.55408554,0.754882353 L0.0262284188,17.1848824 C0.00327137827,17.3337059 0.0448810142,17.4845882 0.140439695,17.5987059 C0.235711413,17.7131176 0.374601508,17.779 0.521239605,17.779 L4.29250743,17.779 L4.03022325,19.484 C4.01013584,19.6128235 4.04658014,19.744 4.12922548,19.8434118 C4.21244475,19.9431176 4.33325618,19.9998824 4.46095472,19.9998824 L7.62013045,19.9998824 C7.98629525,19.9998824 8.29391959,19.7307647 8.35073827,19.3601765 L8.38201724,19.1945882 L8.97689155,15.3275294 L9.01534459,15.1131176 C9.07560682,14.7228235 9.39930109,14.439 9.7855533,14.439 L10.2581814,14.439 C11.8844007,14.439 13.2141873,14.0707647 14.2102359,13.3448824 C14.7551786,12.9478235 15.2131716,12.4342941 15.5710145,11.8187059 C15.9483708,11.1698824 16.2258641,10.3881176 16.3957462,9.49576471 Z" id="Fill-14" fill-opacity="0.68" filter="url(#filter-1)"></path>
                        <path d="M6.33573323,5.29411765 C6.24964355,4.80535853 6.4123113,4.59394492 6.91170898,4.70588235 C6.73077352,4.43851946 6.84189163,4.4116918 6.91170898,4.11764706 L11.519515,4.11764706 C12.2706415,4.4116918 12.7953022,4.44901724 13.2474422,4.70588235 C13.4118932,4.55020417 13.5453495,4.57615702 13.823418,4.70588235 C13.8045296,4.63447801 13.9302535,4.66713777 13.823418,4.70588235 C14.1126819,4.7216679 14.1725368,4.74062223 14.3993937,4.70588235 C14.4672289,4.84005953 14.6863149,4.93395633 14.9753695,5.29411765 C15.1259187,3.4986766 14.8864993,2.44802384 13.823418,1.76470588 C13.1633094,0.448780071 11.5317633,0 9.21561197,0 L3.45585449,0 C2.95905821,0 2.59591964,0.315808198 2.30390299,0.588235294 L0,17.0588235 C-0.043135524,17.3563287 0.200866104,17.6470588 0.575975748,17.6470588 L4.03183024,17.6470588 L5.18378174,11.7647059 L6.33573323,5.29411765 Z" id="Fill-16"></path>
                        <path d="M14.3993937,4.70588235 C14.0100626,4.3833972 13.8833751,4.34945876 13.823418,4.11764706 C13.6222084,4.28855137 13.4880178,4.26158243 13.2474422,4.11764706 C12.8664121,4.15643385 12.3380184,4.11764706 11.519515,4.11764706 L6.91170898,4.11764706 C6.86765779,4.11764706 6.75568796,4.14552507 6.91170898,4.11764706 C6.43449618,4.3070357 6.2705816,4.52672653 6.33573323,4.70588235 L5.18378174,11.7647059 L5.18378174,11.7647059 C5.25102134,11.3189608 5.61376894,10.9904851 5.75975748,11.1764706 L8.06366048,11.1764706 C11.3533766,10.9904851 14.1081805,9.48961801 14.9753695,5.29411765 C14.9369881,5.0206521 14.9571888,4.89611013 14.9753695,4.70588235 C14.7722077,4.66035915 14.5511539,4.56308914 14.3993937,4.70588235 C14.2544916,4.45945568 14.1941779,4.43975926 14.3993937,4.70588235" id="Fill-19" fill-opacity="0.7"></path>
                    </g>
                </g>
                <text id="Check-out" fill="white" filter="url(#filter-2)" sketch:type="MSTextLayer" font-family="Helvetica Neue" font-size="16" font-weight="bold" letter-spacing="0.150000006">
                    <tspan x="85" y="16" fill="#FFFFFF">Check ou</tspan>
                    <tspan x="158.808" y="16" letter-spacing="0.075000003" fill="#FFFFFF">t</tspan>
                </text>
            </g>
        </g>
    </g>
</svg>