<?xml version="1.0" encoding="UTF-8" standalone="no"?>
<svg width="88px" height="56px" viewBox="0 0 88 56" version="1.1" xmlns="http://www.w3.org/2000/svg" xmlns:xlink="http://www.w3.org/1999/xlink" xmlns:sketch="http://www.bohemiancoding.com/sketch/ns">
    <!-- Generator: Sketch 3.0.1 (7597) - http://www.bohemiancoding.com/sketch -->
    <title>BTUICardVisa</title>
    <description>Created with Sketch.</description>
    <defs></defs>
    <g id="Page-1" stroke="none" stroke-width="1" fill="none" fill-rule="evenodd" sketch:type="MSPage">
        <g id="Visa" sketch:type="MSLayerGroup" transform="translate(0.500000, 0.500000)">
            <g transform="translate(8.500000, 16.500000)" sketch:type="MSShapeGroup">
                <path d="M28.45315,21.0884103 L23.1,21.0884103 L26.44565,0 L31.79935,0 L28.45315,21.0884103" id="Fill-1" fill="#005B9C"></path>
                <path d="M18.58285,0 L13.47885,14.5042051 L12.8755,11.3807692 L12.87605,11.3818974 L11.07425,1.89933333 C11.07425,1.89933333 10.857,0 8.5349,0 L0.09845,0 L0,0.356512821 C0,0.356512821 2.5806,0.907076923 5.599,2.76805128 L10.2498,21.0884103 L15.82735,21.0884103 L24.3441,0 L18.58285,0" id="Fill-2" fill="#005B9C"></path>
                <path d="M54.9879,13.6287179 L57.80115,5.73635897 L59.3835,13.6287179 L54.9879,13.6287179 L54.9879,13.6287179 L54.9879,13.6287179 L54.9879,13.6287179 Z M60.8784,21.0884103 L65.79375,21.0884103 L61.50815,0 L57.2044,0 C55.2167,0 54.73325,1.57158974 54.73325,1.57158974 L46.75,21.0884103 L52.3292,21.0884103 L53.4457,17.9565128 L60.25085,17.9565128 L60.8784,21.0884103 L60.8784,21.0884103 Z" id="Fill-3" fill="#005B9C"></path>
                <path d="M47.1405,5.44866667 L47.9039,0.919487179 C47.9039,0.919487179 45.5466,0 43.0892,0 C40.4327,0 34.12475,1.19138462 34.12475,6.98133333 C34.12475,12.43 41.5283,12.4976923 41.5283,15.3582564 C41.5283,18.2188205 34.8876,17.7077436 32.6964,15.9031795 L31.9,20.6376923 C31.9,20.6376923 34.28975,21.8290769 37.94285,21.8290769 C41.5954,21.8290769 47.10695,19.888 47.10695,14.6091282 C47.10695,9.12605128 39.6363,8.61553846 39.6363,6.23164103 C39.6363,3.84774359 44.84975,4.15405128 47.1405,5.44866667" id="Fill-4" fill="#005B9C"></path>
                <path d="M12.87605,11.3818974 L11.07425,1.89933333 C11.07425,1.89933333 10.857,0 8.5349,0 L0.09845,0 L0,0.356512821 C0,0.356512821 4.05515,1.21902564 7.9453,4.44794872 C11.6633,7.53471795 12.87605,11.3818974 12.87605,11.3818974" id="Fill-5" fill="#EF9F3F"></path>
            </g>
        </g>
    </g>
</svg>