<?xml version="1.0" encoding="UTF-8" standalone="no"?>
<svg width="88px" height="56px" viewBox="0 0 88 56" version="1.1" xmlns="http://www.w3.org/2000/svg" xmlns:xlink="http://www.w3.org/1999/xlink" xmlns:sketch="http://www.bohemiancoding.com/sketch/ns">
    <!-- Generator: Sketch 3.0.1 (7597) - http://www.bohemiancoding.com/sketch -->
    <title>BTUICardMasterCard</title>
    <description>Created with Sketch.</description>
    <defs></defs>
    <g id="Page-1" stroke="none" stroke-width="1" fill="none" fill-rule="evenodd" sketch:type="MSPage">
        <g id="MasterCard" sketch:type="MSLayerGroup" transform="translate(0.500000, 0.500000)">
            <g id="Group" transform="translate(16.000000, 11.000000)" sketch:type="MSShapeGroup">
                <path d="M38.4684218,33.5 L39.3459313,33.4769236 L40.2115989,33.4140709 L41.0605665,33.305369 L41.9037651,33.1559799 L42.7235836,32.9668143 L43.5321676,32.7375688 L44.3234443,32.4679396 L45.0977174,32.1639994 L45.8543795,31.8199793 L46.5885726,31.4471137 L47.2996892,31.034168 L47.9934986,30.5926806 L48.6587662,30.1168822 L49.3009573,29.6119347 L49.9203758,29.078749 L50.5109488,28.5112524 L51.078749,27.9203758 L51.6119347,27.3009573 L52.1165786,26.6587662 L52.5926806,25.9934986 L53.034168,25.2996892 L53.4471137,24.5885726 L53.8199793,23.8546831 L54.1639994,23.0974137 L54.4676359,22.3237479 L54.7372651,21.531864 L54.9668143,20.7235836 L55.1559799,19.9034615 L55.3050654,19.0602629 L55.4140709,18.2119026 L55.4772273,17.3459313 L55.5,16.4684218 L55.4772273,15.5966814 L55.4140709,14.7367829 L55.3050654,13.8878152 L55.1559799,13.0564585 L54.9668143,12.2363364 L54.7372651,11.4335215 L54.4676359,10.6422448 L54.1639994,9.8737408 L53.8199793,9.12254412 L53.4471137,8.38865471 L53.034168,7.68330714 L52.5926806,6.98919411 L52.1165786,6.32392656 L51.6119347,5.68750447 L51.078749,5.06808602 L50.5109488,4.47751304 L49.9203758,3.91548189 L49.3009573,3.38229621 L48.6587662,2.87765235 L47.9934986,2.40155033 L47.2996892,1.96006287 L46.5885726,1.55288633 L45.8543795,1.18032436 L45.0977174,0.836000572 L44.3234443,0.532364078 L43.5321676,0.262734872 L42.7235836,0.0334893191 L41.9037651,-0.155979853 L41.0605665,-0.305065371 L40.2115989,-0.414070872 L39.3459313,-0.476923626 L38.4684218,-0.5 L37.5966814,-0.476923626 L36.7307102,-0.414070872 L35.8820462,-0.305065371 L35.0449203,-0.155979853 L34.2247982,0.0334893191 L33.4162142,0.262734872 L32.6307066,0.532364078 L31.8567372,0.836000572 L31.1052368,1.18032436 L30.3771165,1.55288633 L29.6659999,1.96006287 L28.9776559,2.40155033 L28.312692,2.87765235 L27.6705008,3.38229621 L27.0568515,3.91548189 L26.4659749,4.47751304 L25.9039437,5.06808602 L25.370758,5.68750447 L24.8661142,6.32392656 L24.3957812,6.98919411 L23.9542938,7.68330714 L23.5474209,8.38865471 L23.1687862,9.12254412 L22.8305351,9.8737408 L22.5262913,10.6422448 L22.2627349,11.4335215 L22.0331857,12.2363364 L21.8440201,13.0564585 L21.6949346,13.8878152 L21.5859291,14.7367829 L21.5230764,15.5966814 L21.5,16.4684218 L21.5230764,17.3459313 L21.5859291,18.2119026 L21.6949346,19.0602629 L21.8440201,19.9034615 L22.0331857,20.7235836 L22.2627349,21.531864 L22.5262913,22.3237479 L22.8305351,23.0974137 L23.1687862,23.8546831 L23.5474209,24.5885726 L23.9542938,25.2996892 L24.3957812,25.9934986 L24.8661142,26.6587662 L25.370758,27.3009573 L25.9039437,27.9203758 L26.4659749,28.5112524 L27.0568515,29.078749 L27.6705008,29.6119347 L28.312692,30.1168822 L28.9776559,30.5926806 L29.6659999,31.034168 L30.3771165,31.4471137 L31.1052368,31.8199793 L31.8567372,32.1639994 L32.6307066,32.4679396 L33.4162142,32.7375688 L34.2247982,32.9668143 L35.0449203,33.1559799 L35.8820462,33.305369 L36.7307102,33.4140709 L37.5966814,33.4769236 L38.4684218,33.5" id="Fill-1" fill="#F2AD3D"></path>
                <path d="M16.5315782,33.5 L17.4033186,33.4769236 L18.2692898,33.4140709 L19.1179538,33.305369 L19.9550797,33.1559799 L20.7752018,32.9668143 L21.5837858,32.7375688 L22.3692934,32.4679396 L23.1435665,32.1639994 L23.8947632,31.8199793 L24.6231871,31.4471137 L25.3343038,31.034168 L26.0223441,30.5926806 L26.6876116,30.1168822 L27.3298028,29.6119347 L27.9434522,29.078749 L28.5340251,28.5112524 L29.0963599,27.9203758 L29.629242,27.3009573 L30.1341895,26.6587662 L30.6042188,25.9934986 L31.0460099,25.2996892 L31.4528828,24.5885726 L31.8312138,23.8546831 L32.1697685,23.0974137 L32.4740123,22.3237479 L32.7375688,21.531864 L32.9668143,20.7235836 L33.1562835,19.9034615 L33.3050654,19.0602629 L33.4140709,18.2119026 L33.4772273,17.3459313 L33.5,16.4684218 L33.4772273,15.5966814 L33.4140709,14.7367829 L33.3050654,13.8878152 L33.1562835,13.0564585 L32.9668143,12.2363364 L32.7375688,11.4335215 L32.4740123,10.6422448 L32.1697685,9.8737408 L31.8312138,9.12254412 L31.4528828,8.38865471 L31.0460099,7.68330714 L30.6042188,6.98919411 L30.1341895,6.32392656 L29.629242,5.68750447 L29.0963599,5.06808602 L28.5340251,4.47751304 L27.9434522,3.91548189 L27.3298028,3.38229621 L26.6876116,2.87765235 L26.0223441,2.40155033 L25.3343038,1.96006287 L24.6231871,1.55288633 L23.8947632,1.18032436 L23.1435665,0.836000572 L22.3692934,0.532364078 L21.5837858,0.262734872 L20.7752018,0.0334893191 L19.9550797,-0.155979853 L19.1179538,-0.305065371 L18.2692898,-0.414070872 L17.4033186,-0.476923626 L16.5315782,-0.5 L15.6543724,-0.476923626 L14.7884011,-0.414070872 L13.9397371,-0.305065371 L13.0965385,-0.155979853 L12.27672,0.0334893191 L11.468136,0.262734872 L10.6768593,0.532364078 L9.90258627,0.836000572 L9.14562049,1.18032436 L8.41173109,1.55288633 L7.70061442,1.96006287 L7.00680503,2.40155033 L6.34153747,2.87765235 L5.69904265,3.38229621 L5.07962421,3.91548189 L4.48905123,4.47751304 L3.92155462,5.06808602 L3.3880653,5.68750447 L2.88372508,6.32392656 L2.40762306,6.98919411 L1.96583196,7.68330714 L1.55318997,8.38865471 L1.18032436,9.12254412 L0.836304208,9.8737408 L0.532364078,10.6422448 L0.262734872,11.4335215 L0.0334893191,12.2363364 L-0.155676216,13.0564585 L-0.304761735,13.8878152 L-0.413767236,14.7367829 L-0.476923626,15.5966814 L-0.5,16.4684218 L-0.476923626,17.3459313 L-0.413767236,18.2119026 L-0.304761735,19.0602629 L-0.155676216,19.9034615 L0.0334893191,20.7235836 L0.262734872,21.531864 L0.532364078,22.3237479 L0.836304208,23.0974137 L1.18032436,23.8546831 L1.55318997,24.5885726 L1.96583196,25.2996892 L2.40762306,25.9934986 L2.88372508,26.6587662 L3.3880653,27.3009573 L3.92155462,27.9203758 L4.48905123,28.5112524 L5.07962421,29.078749 L5.69904265,29.6119347 L6.34153747,30.1168822 L7.00680503,30.5926806 L7.70061442,31.034168 L8.41173109,31.4471137 L9.14562049,31.8199793 L9.90258627,32.1639994 L10.6768593,32.4679396 L11.468136,32.7375688 L12.27672,32.9668143 L13.0965385,33.1559799 L13.9397371,33.305369 L14.7884011,33.4140709 L15.6543724,33.4769236 L16.5315782,33.5" id="Fill-2" fill="#D82331"></path>
                <path d="M25.1810399,6.22440733 L34.148475,6.22440733 L34.148475,5.30764642 L25.9555084,5.30764642 L25.1810399,6.22440733" id="Fill-3" fill="#F2AD3D"></path>
                <path d="M23.8374018,8.26262519 L34.148475,8.26262519 L34.148475,7.34616575 L24.3782335,7.34616575 L23.8374018,8.26262519" id="Fill-4" fill="#F2AD3D"></path>
                <path d="M22.8353258,10.2951152 L34.148475,10.2951152 L34.148475,9.37835426 L23.2338651,9.37835426 L22.8353258,10.2951152" id="Fill-5" fill="#F2AD3D"></path>
                <path d="M22.1464739,12.333333 L34.148475,12.333333 L34.148475,11.4168736 L22.4310586,11.4168736 L22.1464739,12.333333" id="Fill-6" fill="#F2AD3D"></path>
                <path d="M22.5450131,22.1834632 L34.1768128,22.1834632 L34.1768128,21.2667023 L22.2604284,21.2667023 L22.5450131,22.1834632" id="Fill-7" fill="#F2AD3D"></path>
                <path d="M23.4047968,24.2213796 L34.1768128,24.2213796 L34.1768128,23.3049202 L22.9776182,23.3049202 L23.4047968,24.2213796" id="Fill-8" fill="#F2AD3D"></path>
                <path d="M24.6115689,26.2544725 L34.1768128,26.2544725 L34.1768128,25.3377116 L24.0366715,25.3377116 L24.6115689,26.2544725" id="Fill-9" fill="#F2AD3D"></path>
                <path d="M26.2744604,28.2923889 L34.1768128,28.2923889 L34.1768128,27.3702016 L25.471654,27.3702016 L26.2744604,28.2923889" id="Fill-10" fill="#F2AD3D"></path>
                <path d="M21.7422067,14.3661245 L34.148475,14.3661245 L34.148475,13.4493636 L21.9185649,13.4493636 L21.7422067,14.3661245" id="Fill-11" fill="#F2AD3D"></path>
                <path d="M29.3032986,20.1509732 L34.0345205,20.1509732 L34.0345205,19.2342123 L29.4742303,19.2342123 L29.3032986,20.1509732" id="Fill-12" fill="#F2AD3D"></path>
                <path d="M29.6789264,18.1181818 L34.0345205,18.1181818 L34.0345205,17.195693 L29.8498581,17.195693 L29.6789264,18.1181818" id="Fill-13" fill="#F2AD3D"></path>
                <path d="M21.4289826,17.195693 L22.6589676,17.195693 L22.6589676,18.1181818 L21.4859598,18.1181818 L21.4289826,17.195693" id="Fill-14" fill="#F2AD3D"></path>
                <path d="M19.1345179,16.0856918 L19.0546291,16.0799639 L18.9750419,16.0685082 L18.9011825,16.0570524 L18.8270216,16.0455967 L18.7585886,16.0344424 L18.6847292,16.0229867 L18.6105684,16.0115309 L18.5309811,16.0000752 L18.4513938,15.9886195 L18.3603508,15.9828916 L18.2578521,15.9774652 L18.1496254,15.9717373 L18.0299431,15.9717373 L17.8991064,15.9774652 L17.7510862,15.9886195 L17.5858823,16.0000752 L17.4719278,16.0172588 L17.3640026,16.0344424 L17.2672317,16.0685082 L17.1816151,16.1025739 L17.1017264,16.1423676 L17.027867,16.1881906 L16.9708898,16.2448663 L16.9196404,16.2961157 L16.8855746,16.3588208 L16.8569353,16.421526 L16.845781,16.4899589 L16.845781,16.5583919 L16.8626631,16.6322513 L16.8855746,16.7061107 L16.9310961,16.7802716 L16.9880734,16.854131 L17.1017264,16.9620561 L17.2385924,17.0479742 L17.3980684,17.1218336 L17.5686987,17.1845387 L17.7510862,17.2412145 L17.9389,17.3039196 L18.1267139,17.3723526 L18.3091014,17.4465135 L18.4797317,17.5429829 L18.6392077,17.6626653 L18.7815001,17.8049577 L18.9011825,17.9813158 L18.9922255,18.1977691 L19.0492027,18.4543174 L19.0721142,18.7615122 L19.0492027,19.1202578 L19.0094091,19.387659 L18.9409761,19.6212959 L18.8499331,19.8377491 L18.7359786,20.025563 L18.6051419,20.1904654 L18.4571217,20.3327578 L18.2976457,20.458168 L18.1209861,20.5666961 L17.9389,20.6517098 L17.7510862,20.7258707 L17.5575444,20.7825464 L17.3582748,20.8283694 L17.1644315,20.8624352 L16.9766176,20.8796188 L16.7888037,20.8910745 L16.6121441,20.8965009 L16.367353,20.8965009 L16.1397455,20.8910745 L15.9404758,20.8910745 L15.7526619,20.8850452 L15.5817302,20.8796188 L15.4279821,20.8678616 L15.2914175,20.8567073 L15.1605809,20.8398252 L15.0408985,20.8283694 L14.9326719,20.8054579 L14.8244453,20.7885758 L14.7276744,20.7599364 L14.6309035,20.7373264 L14.4488175,20.6688934 L14.3520466,20.6345262 L14.607992,19.3765047 L14.6595429,19.387659 L14.7219465,19.4048426 L14.8015338,19.4277541 L14.8986061,19.4503641 L15.0011049,19.4729741 L15.1150594,19.4961871 L15.2401682,19.5242235 L15.3767327,19.5474365 L15.5190251,19.5700465 L15.6670453,19.5926565 L15.8207935,19.6101416 L15.9802695,19.6270237 L16.1454733,19.6327516 L16.3103757,19.638178 L16.4755796,19.638178 L16.6407835,19.6327516 L16.8059874,19.5986858 L16.936824,19.5528629 L17.0393228,19.4901577 L17.11891,19.4105705 L17.1758873,19.3309832 L17.2214088,19.2396387 L17.2500481,19.1485957 L17.2726582,19.0632806 L17.2841139,18.8980767 L17.2328645,18.7560858 L17.1360936,18.6421313 L16.9934998,18.5450589 L16.823171,18.4597438 L16.6235999,18.3744287 L16.4017202,18.2945399 L16.1795391,18.2037984 L15.9519316,18.1012996 L15.7354783,17.9813158 L15.5362087,17.8332955 L15.3541227,17.6569374 L15.2115288,17.4404841 L15.1093315,17.1845387 L15.0580821,16.876741 L15.06381,16.512569 L15.0921479,16.2903878 L15.1319415,16.0799639 L15.1889188,15.8864222 L15.2570503,15.7040347 L15.3480933,15.5334044 L15.4508935,15.3850827 L15.5702744,15.2427903 L15.7125668,15.1176815 L15.8777707,15.0094549 L16.0598567,14.9184119 L16.2648542,14.8327953 L16.4927632,14.7703916 L16.7490101,14.7191422 L17.027867,14.6793486 L17.3353633,14.6564371 L17.6714989,14.6507093 L17.8819228,14.6507093 L18.0754646,14.6564371 L18.2521242,14.662165 L18.4116002,14.6678929 L18.5538926,14.6793486 L18.6847292,14.6908044 L18.7986837,14.7019586 L18.9011825,14.7134144 L18.9979533,14.7248701 L19.0775406,14.7417523 L19.1517015,14.753208 L19.219833,14.7646638 L19.2768102,14.7761195 L19.3283611,14.7818474 L19.379309,14.7933031 L19.4248305,14.799031 L19.1345179,16.0856918" id="Fill-15" fill="#FFFFFF"></path>
                <path d="M19.1345179,16.0856918 L19.1345179,16.0856918 L19.0546291,16.0799639 L18.9750419,16.0685082 L18.9011825,16.0570524 L18.8270216,16.0455967 L18.7585886,16.0344424 L18.6847292,16.0229867 L18.6105684,16.0115309 L18.5309811,16.0000752 L18.4513938,15.9886195 L18.3603508,15.9828916 L18.2578521,15.9774652 L18.1496254,15.9717373 L18.0299431,15.9717373 L17.8991064,15.9774652 L17.7510862,15.9886195 L17.5858823,16.0000752 L17.4719278,16.0172588 L17.3640026,16.0344424 L17.2672317,16.0685082 L17.1816151,16.1025739 L17.1017264,16.1423676 L17.027867,16.1881906 L16.9708898,16.2448663 L16.9196404,16.2961157 L16.8855746,16.3588208 L16.8569353,16.421526 L16.845781,16.4899589 L16.845781,16.5583919 L16.8626631,16.6322513 L16.8855746,16.7061107 L16.9310961,16.7802716 L16.9880734,16.854131 L17.1017264,16.9620561 L17.2385924,17.0479742 L17.3980684,17.1218336 L17.5686987,17.1845387 L17.7510862,17.2412145 L17.9389,17.3039196 L18.1267139,17.3723526 L18.3091014,17.4465135 L18.4797317,17.5429829 L18.6392077,17.6626653 L18.7815001,17.8049577 L18.9011825,17.9813158 L18.9922255,18.1977691 L19.0492027,18.4543174 L19.0721142,18.7615122 L19.0492027,19.1202578 L19.0094091,19.387659 L18.9409761,19.6212959 L18.8499331,19.8377491 L18.7359786,20.025563 L18.6051419,20.1904654 L18.4571217,20.3327578 L18.2976457,20.458168 L18.1209861,20.5666961 L17.9389,20.6517098 L17.7510862,20.7258707 L17.5575444,20.7825464 L17.3582748,20.8283694 L17.1644315,20.8624352 L16.9766176,20.8796188 L16.7888037,20.8910745 L16.6121441,20.8965009 L16.367353,20.8965009 L16.1397455,20.8910745 L15.9404758,20.8910745 L15.7526619,20.8850452 L15.5817302,20.8796188 L15.4279821,20.8678616 L15.2914175,20.8567073 L15.1605809,20.8398252 L15.0408985,20.8283694 L14.9326719,20.8054579 L14.8244453,20.7885758 L14.7276744,20.7599364 L14.6309035,20.7373264 L14.4488175,20.6688934 L14.3520466,20.6345262 L14.607992,19.3765047 L14.6595429,19.387659 L14.7219465,19.4048426 L14.8015338,19.4277541 L14.8986061,19.4503641 L15.0011049,19.4729741 L15.1150594,19.4961871 L15.2401682,19.5242235 L15.3767327,19.5474365 L15.5190251,19.5700465 L15.6670453,19.5926565 L15.8207935,19.6101416 L15.9802695,19.6270237 L16.1454733,19.6327516 L16.3103757,19.638178 L16.4755796,19.638178 L16.6407835,19.6327516 L16.8059874,19.5986858 L16.936824,19.5528629 L17.0393228,19.4901577 L17.11891,19.4105705 L17.1758873,19.3309832 L17.2214088,19.2396387 L17.2500481,19.1485957 L17.2726582,19.0632806 L17.2841139,18.8980767 L17.2328645,18.7560858 L17.1360936,18.6421313 L16.9934998,18.5450589 L16.823171,18.4597438 L16.6235999,18.3744287 L16.4017202,18.2945399 L16.1795391,18.2037984 L15.9519316,18.1012996 L15.7354783,17.9813158 L15.5362087,17.8332955 L15.3541227,17.6569374 L15.2115288,17.4404841 L15.1093315,17.1845387 L15.0580821,16.876741 L15.06381,16.512569 L15.0921479,16.2903878 L15.1319415,16.0799639 L15.1889188,15.8864222 L15.2570503,15.7040347 L15.3480933,15.5334044 L15.4508935,15.3850827 L15.5702744,15.2427903 L15.7125668,15.1176815 L15.8777707,15.0094549 L16.0598567,14.9184119 L16.2648542,14.8327953 L16.4927632,14.7703916 L16.7490101,14.7191422 L17.027867,14.6793486 L17.3353633,14.6564371 L17.6714989,14.6507093 L17.8819228,14.6507093 L18.0754646,14.6564371 L18.2521242,14.662165 L18.4116002,14.6678929 L18.5538926,14.6793486 L18.6847292,14.6908044 L18.7986837,14.7019586 L18.9011825,14.7134144 L18.9979533,14.7248701 L19.0775406,14.7417523 L19.1517015,14.753208 L19.219833,14.7646638 L19.2768102,14.7761195 L19.3283611,14.7818474 L19.379309,14.7933031 L19.4248305,14.799031 L19.1345179,16.0856918" id="Stroke-16" stroke="#FFFFFF" stroke-width="0.216"></path>
                <path d="M20.4838838,13.3926878 L22.0611587,13.3926878 L21.8275219,14.7703916 L22.7783485,14.7703916 L22.573351,16.0570524 L21.5715765,16.0287146 L21.0250169,19.205573 L21.0192891,19.3195275 L21.0476269,19.4162984 L21.1046042,19.4901577 L21.1784636,19.5528629 L21.2809623,19.5926565 L21.3949168,19.6270237 L21.5200256,19.6496337 L21.6568916,19.6610895 L21.7820004,19.6553616 L21.8959549,19.6439059 L21.9984536,19.6270237 L22.0894966,19.6041122 L22.163356,19.5815022 L22.2146054,19.5643186 L22.2489726,19.5528629 L22.2604284,19.5474365 L22.0611587,20.6061883 L22.0213651,20.6345262 L21.98127,20.6574377 L21.9414764,20.6800477 L21.9016827,20.7032606 L21.8618891,20.7201428 L21.8163676,20.7373264 L21.7651182,20.75451 L21.7138688,20.7713922 L21.6568916,20.7885758 L21.5999143,20.7997301 L21.5314814,20.8111858 L21.4633498,20.8226415 L21.389189,20.8337958 L21.3038738,20.8452516 L21.2128308,20.8567073 L21.1157585,20.8678616 L20.6831534,20.8678616 L20.4552444,20.8509794 L20.2562763,20.8283694 L20.0738888,20.7940022 L19.9201407,20.75451 L19.789304,20.7032606 L19.6813789,20.6459819 L19.5843065,20.5778504 L19.5104471,20.5036895 L19.4534699,20.4241023 L19.4133748,20.3273314 L19.3850369,20.230259 L19.3681547,20.1223339 L19.3621254,20.0026515 L19.3621254,19.8772413 L19.379309,19.7467061 L19.3964926,19.6041122 L20.4838838,13.3926878" id="Fill-17" fill="#FFFFFF"></path>
                <path d="M20.4838838,13.3926878 L22.0611587,13.3926878 L21.8275219,14.7703916 L22.7783485,14.7703916 L22.573351,16.0570524 L21.5715765,16.0287146 L21.0250169,19.205573 L21.0192891,19.3195275 L21.0476269,19.4162984 L21.1046042,19.4901577 L21.1784636,19.5528629 L21.2809623,19.5926565 L21.3949168,19.6270237 L21.5200256,19.6496337 L21.6568916,19.6610895 L21.7820004,19.6553616 L21.8959549,19.6439059 L21.9984536,19.6270237 L22.0894966,19.6041122 L22.163356,19.5815022 L22.2146054,19.5643186 L22.2489726,19.5528629 L22.2604284,19.5474365 L22.0611587,20.6061883 L22.0213651,20.6345262 L21.98127,20.6574377 L21.9414764,20.6800477 L21.9016827,20.7032606 L21.8618891,20.7201428 L21.8163676,20.7373264 L21.7651182,20.75451 L21.7138688,20.7713922 L21.6568916,20.7885758 L21.5999143,20.7997301 L21.5314814,20.8111858 L21.4633498,20.8226415 L21.389189,20.8337958 L21.3038738,20.8452516 L21.2128308,20.8567073 L21.1157585,20.8678616 L20.6831534,20.8678616 L20.4552444,20.8509794 L20.2562763,20.8283694 L20.0738888,20.7940022 L19.9201407,20.75451 L19.789304,20.7032606 L19.6813789,20.6459819 L19.5843065,20.5778504 L19.5104471,20.5036895 L19.4534699,20.4241023 L19.4133748,20.3273314 L19.3850369,20.230259 L19.3681547,20.1223339 L19.3621254,20.0026515 L19.3621254,19.8772413 L19.379309,19.7467061 L19.3964926,19.6041122 L20.4838838,13.3926878" id="Stroke-18" stroke="#FFFFFF" stroke-width="0.216"></path>
                <path d="M24.0194879,18.3002678 L24.0140615,18.4027666 L24.0252157,18.5109932 L24.0481272,18.6189183 L24.0879208,18.7274464 L24.1334424,18.8299452 L24.1961475,18.9378703 L24.2645805,19.0346412 L24.3441677,19.1317136 L24.4297843,19.2170287 L24.5208273,19.3023439 L24.6233261,19.3707768 L24.7255234,19.433482 L24.8394779,19.4847313 L24.9534324,19.5242235 L25.0673869,19.5474365 L25.2151057,19.5700465 L25.3576995,19.5872301 L25.5057198,19.6041122 L25.65374,19.615568 L25.8017603,19.6212959 L25.9555084,19.6212959 L26.1035287,19.615568 L26.2572768,19.6041122 L26.4110249,19.5815022 L26.5647731,19.5528629 L26.7239476,19.5187971 L26.8779972,19.4675477 L27.0371717,19.4048426 L27.2020741,19.3364096 L27.3618516,19.2456681 L27.526754,19.1485957 L27.2991465,20.549211 L27.2081035,20.5947325 L27.1170605,20.6405555 L27.025716,20.6746213 L26.9404009,20.708687 L26.8550857,20.7373264 L26.7640427,20.7656643 L26.6726982,20.7885758 L26.5762288,20.8054579 L26.4734286,20.8226415 L26.3597756,20.8337958 L26.2400932,20.8452516 L26.1092566,20.8567073 L25.9612363,20.8624352 L25.8074882,20.8624352 L25.6308286,20.8678616 L25.4430147,20.8678616 L25.1641578,20.8624352 L24.8792715,20.8337958 L24.5946867,20.7940022 L24.310102,20.7258707 L24.0309436,20.6405555 L23.7635424,20.5320274 L23.5072956,20.3900365 L23.2679308,20.2248326 L23.0460512,20.0312909 L22.8525094,19.7979555 L22.6873055,19.5359807 L22.550741,19.2342123 L22.4539701,18.8980767 L22.391265,18.5167211 L22.3740814,18.0952703 L22.4027208,17.628298 L22.4253308,17.4465135 L22.459698,17.2357881 L22.5052195,17.013607 L22.5679246,16.7742422 L22.6532398,16.5297526 L22.7557385,16.28466 L22.8865752,16.0344424 L23.0460512,15.7950777 L23.2281372,15.5674702 L23.4503183,15.3510169 L23.7008373,15.1574751 L23.9854221,14.9868449 L24.3158298,14.844251 L24.6857298,14.7417523 L25.0957248,14.6736207 L25.5569692,14.6507093 L25.7788488,14.6564371 L26.0124857,14.6793486 L26.2458211,14.7191422 L26.4791565,14.7761195 L26.7070655,14.8614346 L26.9292466,14.9639334 L27.1339426,15.1004979 L27.322058,15.2599739 L27.4926883,15.4535157 L27.6349806,15.6814247 L27.7489351,15.9430979 L27.8285224,16.2448663 L27.8743454,16.5864284 L27.8797718,16.9738134 L27.8402796,17.4064184 L27.7543615,17.8848464 L27.7263251,18.2318348 L23.5757285,18.2318348 L23.8374018,17.1103779 L26.3311362,17.1103779 L26.342592,16.9680855 L26.3368641,16.831521 L26.3254083,16.7061107 L26.3027983,16.5924577 L26.2630047,16.4842311 L26.2229096,16.3871587 L26.1662338,16.3018436 L26.1092566,16.2222563 L26.0408236,16.1538233 L25.9669642,16.0968461 L25.8813476,16.0455967 L25.7960324,16.0000752 L25.7049894,15.9660094 L25.6139464,15.9430979 L25.5168741,15.9262158 L25.4146768,15.9147601 L25.3064501,15.9204879 L25.2039514,15.9373701 L25.1071805,15.9602816 L25.0104096,15.9943473 L24.9133373,16.0398688 L24.8280221,16.0914197 L24.742707,16.1538233 L24.6685461,16.2222563 L24.5946867,16.3018436 L24.5262538,16.3871587 L24.4635486,16.4782017 L24.4126007,16.5752741 L24.3610499,16.6777728 L24.3215577,16.7917273 L24.2871905,16.9053804 L24.2645805,17.0247613 L24.0366715,18.2037984 L24.0194879,18.3002678 Z" id="Fill-19" fill="#FFFFFF"></path>
                <path d="M24.1334423,17.0247613 L24.0366715,18.2037984 L24.0194879,18.3002678 L24.0140615,18.4027666 L24.0252157,18.5109932 L24.0481272,18.6189183 L24.0879208,18.7274464 L24.1334424,18.8299452 L24.1961475,18.9378703 L24.2645805,19.0346412 L24.3441677,19.1317136 L24.4297843,19.2170287 L24.5208273,19.3023439 L24.6233261,19.3707768 L24.7255234,19.433482 L24.8394779,19.4847313 L24.9534324,19.5242235 L25.0673869,19.5474365 L25.2151057,19.5700465 L25.3576995,19.5872301 L25.5057198,19.6041122 L25.65374,19.615568 L25.8017603,19.6212959 L25.9555084,19.6212959 L26.1035287,19.615568 L26.2572768,19.6041122 L26.4110249,19.5815022 L26.5647731,19.5528629 L26.7239476,19.5187971 L26.8779972,19.4675477 L27.0371717,19.4048426 L27.2020741,19.3364096 L27.3618516,19.2456681 L27.526754,19.1485957 L27.2991465,20.549211 L27.2081035,20.5947325 L27.1170605,20.6405555 L27.025716,20.6746213 L26.9404009,20.708687 L26.8550857,20.7373264 L26.7640427,20.7656643 L26.6726982,20.7885758 L26.5762288,20.8054579 L26.4734286,20.8226415 L26.3597756,20.8337958 L26.2400932,20.8452516 L26.1092566,20.8567073 L25.9612363,20.8624352 L25.8074882,20.8624352 L25.6308286,20.8678616 L25.4430147,20.8678616 L25.1641578,20.8624352 L24.8792715,20.8337958 L24.5946867,20.7940022 L24.310102,20.7258707 L24.0309436,20.6405555 L23.7635424,20.5320274 L23.5072956,20.3900365 L23.2679308,20.2248326 L23.0460512,20.0312909 L22.8525094,19.7979555 L22.6873055,19.5359807 L22.550741,19.2342123 L22.4539701,18.8980767 L22.391265,18.5167211 L22.3740814,18.0952703 L22.4027208,17.628298 L22.4253308,17.4465135 L22.459698,17.2357881 L22.5052195,17.013607 L22.5679246,16.7742422 L22.6532398,16.5297526 L22.7557385,16.28466 L22.8865752,16.0344424 L23.0460512,15.7950777 L23.2281372,15.5674702 L23.4503183,15.3510169 L23.7008373,15.1574751 L23.9854221,14.9868449 L24.3158298,14.844251 L24.6857298,14.7417523 L25.0957248,14.6736207 L25.5569692,14.6507093 L25.7788488,14.6564371 L26.0124857,14.6793486 L26.2458211,14.7191422 L26.4791565,14.7761195 L26.7070655,14.8614346 L26.9292466,14.9639334 L27.1339426,15.1004979 L27.322058,15.2599739 L27.4926883,15.4535157 L27.6349806,15.6814247 L27.7489351,15.9430979 L27.8285224,16.2448663 L27.8743454,16.5864284 L27.8797718,16.9738134 L27.8402796,17.4064184 L27.7543615,17.8848464 L27.7263251,18.2318348 L23.6376953,18.2037984 L23.8374018,17.1103779 L26.3311362,17.1103779 L26.342592,16.9680855 L26.3368641,16.831521 L26.3254083,16.7061107 L26.3027983,16.5924577 L26.2630047,16.4842311 L26.2229096,16.3871587 L26.1662338,16.3018436 L26.1092566,16.2222563 L26.0408236,16.1538233 L25.9669642,16.0968461 L25.8813476,16.0455967 L25.7960324,16.0000752 L25.7049894,15.9660094 L25.6139464,15.9430979 L25.5168741,15.9262158 L25.4146768,15.9147601 L25.3064501,15.9204879 L25.2039514,15.9373701 L25.1071805,15.9602816 L25.0104096,15.9943473 L24.9133373,16.0398688 L24.8280221,16.0914197 L24.742707,16.1538233 L24.6685461,16.2222563 L24.5946867,16.3018436 L24.5262538,16.3871587 L24.4635486,16.4782017 L24.4126007,16.5752741 L24.3610499,16.6777728 L24.3215577,16.7917273 L24.2871905,16.9053804 L24.2645805,17.0247613 L24.0366715,18.2037984" id="Stroke-20" stroke="#FFFFFF" stroke-width="0.216"></path>
                <path d="M23,17 L23,19 L24,19 L24.123291,17 L23,17 Z" id="Rectangle-66" fill="#FFFFFF"></path>
                <path d="M37.615646,15.1119536 L37.5417866,15.07216 L37.4679272,15.0380942 L37.3880385,14.9979991 L37.3027234,14.9582055 L37.2174082,14.9241398 L37.023565,14.8557068 L36.9213677,14.821641 L36.8131411,14.7933031 L36.7049144,14.7703916 L36.5852321,14.7474801 L36.4658512,14.730598 L36.3347131,14.7191422 L36.2038764,14.7076865 L35.7824257,14.7076865 L35.6344054,14.7191422 L35.4806573,14.7363259 L35.3214827,14.7646638 L35.1620067,14.8101853 L35.0025307,14.8728904 L34.8430547,14.9524776 L34.6835787,15.0549764 L34.5301321,15.1803866 L34.3821118,15.3284069 L34.239518,15.5104929 L34.1029534,15.7212183 L33.9778447,15.9717373 L33.8578608,16.2563221 L33.7499357,16.5752741 L33.6588927,16.9394461 L33.6248269,17.1444436 L33.6019154,17.3437133 L33.5904597,17.5429829 L33.5961876,17.7368261 L33.6133712,17.9300664 L33.6531648,18.1124539 L33.7044142,18.2830842 L33.7671193,18.4543174 L33.8524344,18.6077641 L33.9549332,18.7560858 L34.0743141,18.886621 L34.2108786,19.0063033 L34.3649282,19.1085006 L34.5412864,19.1944187 L34.7351296,19.2682781 L34.9512814,19.3195275 L35.0251408,19.3364096 L35.1107574,19.3535932 L35.2132561,19.365049 L35.3269091,19.3765047 L35.4520179,19.387659 L35.7257499,19.387659 L35.8677408,19.3765047 L36.0160625,19.3593211 L36.1640828,19.3309832 L36.3060737,19.2911896 L36.4486676,19.2456681 L36.59096,19.182963 L36.7217966,19.1085006 L36.841479,19.0177591 L36.9554335,18.9152603 L36.6991866,20.435558 L36.6651208,20.4638959 L36.6310551,20.4979617 L36.5852321,20.5380568 L36.5339827,20.5721225 L36.4712776,20.617644 L36.3916903,20.6574377 L36.3006473,20.6972313 L36.1981486,20.7312971 L36.0673119,20.7713922 L35.9189902,20.7997301 L35.7483599,20.8226415 L35.5490903,20.8452516 L35.3269091,20.8567073 L35.0709637,20.8624352 L34.7803496,20.8567073 L34.4613976,20.8398252 L34.1997243,20.8111858 L33.9377496,20.75451 L33.6760763,20.6688934 L33.4141015,20.5549389 L33.1635825,20.4183744 L32.9245193,20.2474427 L32.6966103,20.0484745 L32.4861863,19.8205655 L32.298071,19.5643186 L32.138595,19.2797338 L32.0020305,18.9607818 L31.8995317,18.6134919 L31.8314002,18.2318348 L31.8084887,17.8275677 L31.8199445,17.3838084 L31.8826496,16.9111082 L31.9278696,16.6777728 L31.979119,16.4498638 L32.0363977,16.2279842 L32.0930735,16.0172588 L32.1557786,15.8179892 L32.229638,15.6187195 L32.3037989,15.4309056 L32.3833861,15.254246 L32.4690027,15.0775864 L32.5543179,14.912684 L32.6510888,14.753208 L32.753286,14.6051877 L32.8560863,14.4628954 L32.9697393,14.3263308 L33.0836938,14.2009206 L33.2033762,14.0815397 L33.3342128,13.9675852 L33.4653509,13.8593586 L33.6019154,13.7625877 L33.7442078,13.6715447 L33.8979559,13.5859281 L34.0517041,13.5120687 L34.2108786,13.4436357 L34.3760825,13.3809306 L34.5527421,13.3242548 L34.7291002,13.2787333 L34.9114877,13.2386382 L35.1050295,13.2045724 L35.2985713,13.1759331 L35.5035688,13.1533231 L35.7085663,13.1418673 L35.9250195,13.1364409 L36.1071055,13.1418673 L36.2834637,13.1533231 L36.4543954,13.1702052 L36.6250257,13.1934182 L36.7848032,13.2160282 L36.9382498,13.2500939 L37.0862701,13.2787333 L37.2231361,13.3127991 L37.3539727,13.3468648 L37.4679272,13.3809306 L37.5761539,13.4152978 L37.6671969,13.4493636 L37.7467841,13.4780029 L37.8149157,13.5006129 L37.8664665,13.5235244 L37.9005323,13.5349802 L37.615646,15.1119536" id="Fill-21" fill="#FFFFFF"></path>
                <path d="M37.615646,15.1119536 L37.615646,15.1119536 L37.5417866,15.07216 L37.4679272,15.0380942 L37.3880385,14.9979991 L37.3027234,14.9582055 L37.2174082,14.9241398 L37.023565,14.8557068 L36.9213677,14.821641 L36.8131411,14.7933031 L36.7049144,14.7703916 L36.5852321,14.7474801 L36.4658512,14.730598 L36.3347131,14.7191422 L36.2038764,14.7076865 L35.7824257,14.7076865 L35.6344054,14.7191422 L35.4806573,14.7363259 L35.3214827,14.7646638 L35.1620067,14.8101853 L35.0025307,14.8728904 L34.8430547,14.9524776 L34.6835787,15.0549764 L34.5301321,15.1803866 L34.3821118,15.3284069 L34.239518,15.5104929 L34.1029534,15.7212183 L33.9778447,15.9717373 L33.8578608,16.2563221 L33.7499357,16.5752741 L33.6588927,16.9394461 L33.6248269,17.1444436 L33.6019154,17.3437133 L33.5904597,17.5429829 L33.5961876,17.7368261 L33.6133712,17.9300664 L33.6531648,18.1124539 L33.7044142,18.2830842 L33.7671193,18.4543174 L33.8524344,18.6077641 L33.9549332,18.7560858 L34.0743141,18.886621 L34.2108786,19.0063033 L34.3649282,19.1085006 L34.5412864,19.1944187 L34.7351296,19.2682781 L34.9512814,19.3195275 L35.0251408,19.3364096 L35.1107574,19.3535932 L35.2132561,19.365049 L35.3269091,19.3765047 L35.4520179,19.387659 L35.7257499,19.387659 L35.8677408,19.3765047 L36.0160625,19.3593211 L36.1640828,19.3309832 L36.3060737,19.2911896 L36.4486676,19.2456681 L36.59096,19.182963 L36.7217966,19.1085006 L36.841479,19.0177591 L36.9554335,18.9152603 L36.6991866,20.435558 L36.6651208,20.4638959 L36.6310551,20.4979617 L36.5852321,20.5380568 L36.5339827,20.5721225 L36.4712776,20.617644 L36.3916903,20.6574377 L36.3006473,20.6972313 L36.1981486,20.7312971 L36.0673119,20.7713922 L35.9189902,20.7997301 L35.7483599,20.8226415 L35.5490903,20.8452516 L35.3269091,20.8567073 L35.0709637,20.8624352 L34.7803496,20.8567073 L34.4613976,20.8398252 L34.1997243,20.8111858 L33.9377496,20.75451 L33.6760763,20.6688934 L33.4141015,20.5549389 L33.1635825,20.4183744 L32.9245193,20.2474427 L32.6966103,20.0484745 L32.4861863,19.8205655 L32.298071,19.5643186 L32.138595,19.2797338 L32.0020305,18.9607818 L31.8995317,18.6134919 L31.8314002,18.2318348 L31.8084887,17.8275677 L31.8199445,17.3838084 L31.8826496,16.9111082 L31.9278696,16.6777728 L31.979119,16.4498638 L32.0363977,16.2279842 L32.0930735,16.0172588 L32.1557786,15.8179892 L32.229638,15.6187195 L32.3037989,15.4309056 L32.3833861,15.254246 L32.4690027,15.0775864 L32.5543179,14.912684 L32.6510888,14.753208 L32.753286,14.6051877 L32.8560863,14.4628954 L32.9697393,14.3263308 L33.0836938,14.2009206 L33.2033762,14.0815397 L33.3342128,13.9675852 L33.4653509,13.8593586 L33.6019154,13.7625877 L33.7442078,13.6715447 L33.8979559,13.5859281 L34.0517041,13.5120687 L34.2108786,13.4436357 L34.3760825,13.3809306 L34.5527421,13.3242548 L34.7291002,13.2787333 L34.9114877,13.2386382 L35.1050295,13.2045724 L35.2985713,13.1759331 L35.5035688,13.1533231 L35.7085663,13.1418673 L35.9250195,13.1364409 L36.1071055,13.1418673 L36.2834637,13.1533231 L36.4543954,13.1702052 L36.6250257,13.1934182 L36.7848032,13.2160282 L36.9382498,13.2500939 L37.0862701,13.2787333 L37.2231361,13.3127991 L37.3539727,13.3468648 L37.4679272,13.3809306 L37.5761539,13.4152978 L37.6671969,13.4493636 L37.7467841,13.4780029 L37.8149157,13.5006129 L37.8664665,13.5235244 L37.9005323,13.5349802 L37.615646,15.1119536" id="Stroke-22" stroke="#FFFFFF" stroke-width="0.216"></path>
                <path d="M51.6332549,20.8678616 L50.0562815,20.8678616 L50.170236,20.2362884 L50.170236,20.1790097 L50.0788915,20.2929642 L49.9824221,20.3954629 L49.8853497,20.4868074 L49.7831524,20.5666961 L49.6806537,20.6405555 L49.5781549,20.7032606 L49.4756562,20.75451 L49.3674296,20.8054579 L49.2592029,20.8452516 L49.1509763,20.8738909 L49.0430511,20.9025303 L48.9290966,20.9194124 L48.8151422,20.936596 L48.7069155,20.9477503 L48.592961,20.9537797 L48.4790065,20.9537797 L48.1832675,20.9308682 L47.909837,20.8678616 L47.659318,20.7713922 L47.4317105,20.6405555 L47.2264115,20.4753516 L47.0443255,20.2818099 L46.8848495,20.0710845 L46.7482849,19.8320212 L46.6343304,19.5754729 L46.5435889,19.3083732 L46.4805823,19.0292148 L46.4350608,18.7389022 L46.4178772,18.4482881 L46.4239065,18.1522475 L46.4522444,17.8619349 L46.5037953,17.5716223 L46.5888089,17.2357881 L46.6916092,16.9168361 L46.8109901,16.6265235 L46.9532824,16.353093 L47.1013027,16.0968461 L47.2722344,15.8692386 L47.4485926,15.664241 L47.636708,15.4764272 L47.8359776,15.3112233 L48.0464015,15.1689309 L48.2631562,15.0438221 L48.4790065,14.9467498 L48.7069155,14.8671625 L48.9345231,14.8159131 L49.162432,14.7818474 L49.3960689,14.7703916 L49.5609713,14.7761195 L49.7204473,14.7933031 L49.8684676,14.821641 L50.0050321,14.8614346 L50.1358687,14.9069561 L50.2501247,14.9582055 L50.3637777,15.0209106 L50.4662765,15.0833143 L50.5573195,15.1517473 L50.6426346,15.2259081 L50.716494,15.2997675 L50.7852285,15.3739284 L50.8419043,15.4477878 L50.8931536,15.5219487 L50.9389766,15.5903816 L50.9730424,15.6585132 L51.3715816,13.4210257 L52.9202172,13.4210257 L51.6332549,20.8678616" id="Fill-23" fill="#FFFFFF"></path>
                <path d="M51.6332549,20.8678616 L50.0562815,20.8678616 L50.170236,20.2362884 L50.170236,20.1790097 L50.0788915,20.2929642 L49.9824221,20.3954629 L49.8853497,20.4868074 L49.7831524,20.5666961 L49.6806537,20.6405555 L49.5781549,20.7032606 L49.4756562,20.75451 L49.3674296,20.8054579 L49.2592029,20.8452516 L49.1509763,20.8738909 L49.0430511,20.9025303 L48.9290966,20.9194124 L48.8151422,20.936596 L48.7069155,20.9477503 L48.592961,20.9537797 L48.4790065,20.9537797 L48.1832675,20.9308682 L47.909837,20.8678616 L47.659318,20.7713922 L47.4317105,20.6405555 L47.2264115,20.4753516 L47.0443255,20.2818099 L46.8848495,20.0710845 L46.7482849,19.8320212 L46.6343304,19.5754729 L46.5435889,19.3083732 L46.4805823,19.0292148 L46.4350608,18.7389022 L46.4178772,18.4482881 L46.4239065,18.1522475 L46.4522444,17.8619349 L46.5037953,17.5716223 L46.5888089,17.2357881 L46.6916092,16.9168361 L46.8109901,16.6265235 L46.9532824,16.353093 L47.1013027,16.0968461 L47.2722344,15.8692386 L47.4485926,15.664241 L47.636708,15.4764272 L47.8359776,15.3112233 L48.0464015,15.1689309 L48.2631562,15.0438221 L48.4790065,14.9467498 L48.7069155,14.8671625 L48.9345231,14.8159131 L49.162432,14.7818474 L49.3960689,14.7703916 L49.5609713,14.7761195 L49.7204473,14.7933031 L49.8684676,14.821641 L50.0050321,14.8614346 L50.1358687,14.9069561 L50.2501247,14.9582055 L50.3637777,15.0209106 L50.4662765,15.0833143 L50.5573195,15.1517473 L50.6426346,15.2259081 L50.716494,15.2997675 L50.7852285,15.3739284 L50.8419043,15.4477878 L50.8931536,15.5219487 L50.9389766,15.5903816 L50.9730424,15.6585132 L51.3715816,13.4210257 L52.9202172,13.4210257 L51.6332549,20.8678616" id="Stroke-24" stroke="#FFFFFF" stroke-width="0.216"></path>
                <path d="M49.0545069,19.4901577 L49.2136814,19.4790035 L49.3617017,19.4449377 L49.4982662,19.4048426 L49.6294043,19.3421375 L49.7487852,19.2737045 L49.8627397,19.1883894 L49.9709663,19.0919199 L50.0677372,18.9891197 L50.1530524,18.8754667 L50.2329411,18.7500565 L50.3068005,18.6189183 L50.3695056,18.4823538 L50.4261814,18.3403629 L50.4720044,18.1923426 L50.511798,18.0385945 L50.5401359,17.8848464 L50.5687752,17.7253704 L50.5859589,17.5601665 L50.5859589,17.4064184 L50.5799295,17.2472438 L50.5630474,17.0989221 L50.5401359,16.9566297 L50.5003422,16.8200652 L50.4548207,16.6889271 L50.398145,16.5752741 L50.329712,16.4670475 L50.2555511,16.3760044 L50.170236,16.2961157 L50.0731636,16.2279842 L49.9709663,16.1824627 L49.8627397,16.1538233 L49.7433588,16.1423676 L49.5893092,16.1538233 L49.4470168,16.1767348 L49.3161802,16.2222563 L49.1850421,16.2792336 L49.0710876,16.353093 L48.9574345,16.4444374 L48.8606637,16.5412083 L48.7638928,16.6491335 L48.6785776,16.7742422 L48.5986889,16.9053804 L48.5248295,17.0419449 L48.4621244,17.1899651 L48.4051471,17.3437133 L48.3596256,17.4974614 L48.3141041,17.6626653 L48.2800384,17.8275677 L48.2517005,18.0783882 L48.2631562,18.3515172 L48.3026484,18.6306756 L48.3768092,18.8980767 L48.4904623,19.1317136 L48.638784,19.3195275 L48.8265979,19.4449377 L49.0545069,19.4901577" id="Fill-25" fill="#F2AD3D"></path>
                <path d="M14.0900719,19.6041122 L13.8621629,20.8678616 L12.4274818,20.8678616 L12.4672754,20.6345262 L12.4959148,20.4241023 L12.5185248,20.2646263 L12.5414363,20.1790097 L12.4615476,20.2703541 L12.3705045,20.3613971 L12.2625794,20.4467123 L12.142897,20.526601 L12.0063325,20.6061883 L11.8637386,20.6746213 L11.7157184,20.7427528 L11.5619703,20.7997301 L11.3970679,20.8509794 L11.231864,20.8910745 L11.0666601,20.9251403 L10.8960298,20.9477503 L10.730826,20.9592061 L10.5656221,20.9649339 L10.4064475,20.9477503 L10.2526994,20.9251403 L10.0534298,20.8738909 L9.87104229,20.8172151 L9.71186776,20.7427528 L9.56957537,20.6574377 L9.44416513,20.5666961 L9.33021064,20.4638959 L9.23916763,20.3556693 L9.15927889,20.2417148 L9.09114737,20.1223339 L9.03417012,19.9969236 L8.98864862,19.8718149 L8.95428139,19.7467061 L8.93167137,19.615568 L8.91448775,19.4847313 L8.90333348,19.3593211 L8.90333348,19.2342123 L8.92021562,19.0120312 L8.95428139,18.8013058 L9.01125863,18.6020362 L9.0854195,18.4084944 L9.17646251,18.2264084 L9.27896126,18.0612045 L9.39864363,17.90203 L9.53520814,17.7594361 L9.67750053,17.628298 L9.83697653,17.5089171 L10.0021804,17.400992 L10.1728107,17.3096475 L10.3548967,17.2300602 L10.5430121,17.1673551 L10.7365538,17.1161057 L10.9358235,17.08204 L10.9472792,17.08204 L10.9756171,17.0760106 L11.0157122,17.0705842 L11.0781158,17.0648564 L11.1462474,17.0534006 L11.2261361,17.0479742 L11.3114512,17.036217 L11.4085236,17.0247613 L11.5052945,17.013607 L11.6020654,17.0021512 L11.7045641,16.9967248 L11.7956071,16.9852691 L11.8866501,16.9795412 L11.9719653,16.9738134 L12.0515525,16.9680855 L12.2453958,16.9680855 L12.3819603,16.9738134 L12.5073705,16.9795412 L12.6324793,16.9795412 L12.734978,16.9852691 L12.8148668,16.9906955 L12.8715426,16.9967248 L12.8887262,16.9967248 L12.9001819,16.9566297 L12.9342477,16.854131 L12.9625856,16.7344486 L12.9740413,16.6265235 L12.9514313,16.5011132 L12.9001819,16.3871587 L12.8317489,16.28466 L12.7407059,16.1993448 L12.6324793,16.1254854 L12.5127969,16.0742361 L12.3762324,16.0398688 L12.2282122,16.0287146 L12.0690376,16.0229867 L11.8981059,16.0172588 L11.7214463,16.0172588 L11.5393602,16.0229867 L11.3515463,16.0344424 L11.1691589,16.0513246 L10.9870728,16.0685082 L10.8104132,16.0914197 L10.6397829,16.1140297 L10.4745791,16.1423676 L10.3265588,16.1710069 L10.1899943,16.1993448 L10.0645841,16.2337121 L9.96208531,16.2677778 L9.88249804,16.3075715 L9.81979292,16.3416372 L10.2240601,14.9696613 L10.3491688,14.9184119 L10.4745791,14.8728904 L10.6111436,14.8327953 L10.7480096,14.8044574 L10.8845741,14.7761195 L11.0325943,14.753208 L11.1806146,14.730598 L11.3343627,14.7191422 L11.4938387,14.7076865 L11.6587411,14.7019586 L11.8296729,14.6962308 L12.3762324,14.6962308 L12.575502,14.7019586 L12.7747717,14.7076865 L12.9342477,14.7191422 L13.1051794,14.7474801 L13.2815376,14.7875752 L13.4639251,14.8388246 L13.6402832,14.9069561 L13.8109135,14.9868449 L13.9818452,15.0833143 L14.1413212,15.1915409 L14.2836136,15.3169512 L14.4087224,15.4535157 L14.5226769,15.6072638 L14.607992,15.7781955 L14.6649693,15.9602816 L14.6993365,16.1538233 L14.6993365,16.3702766 L14.6649693,16.5978841 L14.0900719,19.6041122" id="Fill-26" fill="#FFFFFF"></path>
                <path d="M14.0900719,19.6041122 L13.8621629,20.8678616 L12.4274818,20.8678616 L12.4672754,20.6345262 L12.4959148,20.4241023 L12.5185248,20.2646263 L12.5414363,20.1790097 L12.4615476,20.2703541 L12.3705045,20.3613971 L12.2625794,20.4467123 L12.142897,20.526601 L12.0063325,20.6061883 L11.8637386,20.6746213 L11.7157184,20.7427528 L11.5619703,20.7997301 L11.3970679,20.8509794 L11.231864,20.8910745 L11.0666601,20.9251403 L10.8960298,20.9477503 L10.730826,20.9592061 L10.5656221,20.9649339 L10.4064475,20.9477503 L10.2526994,20.9251403 L10.0534298,20.8738909 L9.87104229,20.8172151 L9.71186776,20.7427528 L9.56957537,20.6574377 L9.44416513,20.5666961 L9.33021064,20.4638959 L9.23916763,20.3556693 L9.15927889,20.2417148 L9.09114737,20.1223339 L9.03417012,19.9969236 L8.98864862,19.8718149 L8.95428139,19.7467061 L8.93167137,19.615568 L8.91448775,19.4847313 L8.90333348,19.3593211 L8.90333348,19.2342123 L8.92021562,19.0120312 L8.95428139,18.8013058 L9.01125863,18.6020362 L9.0854195,18.4084944 L9.17646251,18.2264084 L9.27896126,18.0612045 L9.39864363,17.90203 L9.53520814,17.7594361 L9.67750053,17.628298 L9.83697653,17.5089171 L10.0021804,17.400992 L10.1728107,17.3096475 L10.3548967,17.2300602 L10.5430121,17.1673551 L10.7365538,17.1161057 L10.9358235,17.08204 L10.9472792,17.08204 L10.9756171,17.0760106 L11.0157122,17.0705842 L11.0781158,17.0648564 L11.1462474,17.0534006 L11.2261361,17.0479742 L11.3114512,17.036217 L11.4085236,17.0247613 L11.5052945,17.013607 L11.6020654,17.0021512 L11.7045641,16.9967248 L11.7956071,16.9852691 L11.8866501,16.9795412 L11.9719653,16.9738134 L12.0515525,16.9680855 L12.2453958,16.9680855 L12.3819603,16.9738134 L12.5073705,16.9795412 L12.6324793,16.9795412 L12.734978,16.9852691 L12.8148668,16.9906955 L12.8715426,16.9967248 L12.8887262,16.9967248 L12.9001819,16.9566297 L12.9342477,16.854131 L12.9625856,16.7344486 L12.9740413,16.6265235 L12.9514313,16.5011132 L12.9001819,16.3871587 L12.8317489,16.28466 L12.7407059,16.1993448 L12.6324793,16.1254854 L12.5127969,16.0742361 L12.3762324,16.0398688 L12.2282122,16.0287146 L12.0690376,16.0229867 L11.8981059,16.0172588 L11.7214463,16.0172588 L11.5393602,16.0229867 L11.3515463,16.0344424 L11.1691589,16.0513246 L10.9870728,16.0685082 L10.8104132,16.0914197 L10.6397829,16.1140297 L10.4745791,16.1423676 L10.3265588,16.1710069 L10.1899943,16.1993448 L10.0645841,16.2337121 L9.96208531,16.2677778 L9.88249804,16.3075715 L9.81979292,16.3416372 L10.2240601,14.9696613 L10.3491688,14.9184119 L10.4745791,14.8728904 L10.6111436,14.8327953 L10.7480096,14.8044574 L10.8845741,14.7761195 L11.0325943,14.753208 L11.1806146,14.730598 L11.3343627,14.7191422 L11.4938387,14.7076865 L11.6587411,14.7019586 L11.8296729,14.6962308 L12.3762324,14.6962308 L12.575502,14.7019586 L12.7747717,14.7076865 L12.9342477,14.7191422 L13.1051794,14.7474801 L13.2815376,14.7875752 L13.4639251,14.8388246 L13.6402832,14.9069561 L13.8109135,14.9868449 L13.9818452,15.0833143 L14.1413212,15.1915409 L14.2836136,15.3169512 L14.4087224,15.4535157 L14.5226769,15.6072638 L14.607992,15.7781955 L14.6649693,15.9602816 L14.6993365,16.1538233 L14.6993365,16.3702766 L14.6649693,16.5978841 L14.0900719,19.6041122" id="Stroke-27" stroke="#FFFFFF" stroke-width="0.216"></path>
                <path d="M12.7177944,18.1181818 L12.7120666,18.0898439 L12.6894565,18.0612045 L12.6550893,18.0440209 L12.5984135,18.0325652 L12.5357084,18.0214109 L12.4615476,18.015683 L12.2909173,18.015683 L12.1998743,18.0214109 L12.1028019,18.0325652 L12.0117589,18.0440209 L11.9207159,18.0554767 L11.8354008,18.0669324 L11.7558135,18.084116 L11.6873805,18.1012996 L11.6246754,18.1181818 L11.5848817,18.1293361 L11.5393602,18.1465197 L11.4766551,18.1694312 L11.4142515,18.1977691 L11.3400906,18.2318348 L11.2659297,18.2719299 L11.1863425,18.3117235 L11.1121816,18.3572451 L11.0325943,18.4142223 L10.9587349,18.4708981 L10.890302,18.5396325 L10.8275968,18.6077641 L10.7706196,18.6816235 L10.730826,18.7615122 L10.6967602,18.8525552 L10.6795766,18.9438997 L10.6738487,19.13714 L10.7021866,19.2911896 L10.7594653,19.4048426 L10.8333247,19.4901577 L10.9186398,19.5474365 L11.0157122,19.5815022 L11.1067552,19.5986858 L11.1977982,19.6041122 L11.3684285,19.5986858 L11.5221766,19.5815022 L11.6704983,19.5585907 L11.8010335,19.5242235 L11.914988,19.4847313 L12.0232146,19.433482 L12.1199855,19.3822326 L12.2056021,19.3195275 L12.2794615,19.2625502 L12.3478945,19.1944187 L12.4048718,19.1317136 L12.4503933,19.0632806 L12.4901869,18.9951491 L12.5242527,18.9267161 L12.552892,18.8640109 L12.5697742,18.8013058 L12.6155971,18.6364034 L12.6550893,18.4482881 L12.6894565,18.266202 L12.7177944,18.1181818" id="Fill-28" fill="#D82331"></path>
                <path d="M2.1106808,20.8678616 L0.562045225,20.8678616 L1.85443392,13.3926878 L4.54743793,13.3926878 L4.80368481,17.8275677 L6.66554452,13.3926878 L9.4782309,13.3926878 L8.15720285,20.8678616 L6.60856727,20.8678616 L7.5880333,15.2828854 L7.52532818,15.2828854 L5.20795195,20.8678616 L3.46004674,20.8678616 L3.448591,20.6345262 L3.40879736,20.0138058 L3.35784945,19.1317136 L3.24389496,17.0989221 L3.19264558,16.2050727 L3.15255048,15.5560144 L3.14139621,15.2828854 L3.05608107,15.2828854 L2.1106808,20.8678616" id="Fill-29" fill="#FFFFFF"></path>
                <path d="M2.1106808,20.8678616 L0.562045225,20.8678616 L1.85443392,13.3926878 L4.54743793,13.3926878 L4.80368481,17.8275677 L6.66554452,13.3926878 L9.4782309,13.3926878 L8.15720285,20.8678616 L6.60856727,20.8678616 L7.5880333,15.2828854 L7.52532818,15.2828854 L5.20795195,20.8678616 L3.46004674,20.8678616 L3.448591,20.6345262 L3.40879736,20.0138058 L3.35784945,19.1317136 L3.24389496,17.0989221 L3.19264558,16.2050727 L3.15255048,15.5560144 L3.14139621,15.2828854 L3.05608107,15.2828854 L2.1106808,20.8678616" id="Stroke-30" stroke="#FFFFFF" stroke-width="0.216"></path>
                <path d="M42.3474708,19.6041122 L42.113834,20.8678616 L40.6848807,20.8678616 L40.696035,20.6345262 L40.7020644,20.4295287 L40.7020644,20.276082 L40.7132186,20.207649 L40.6393592,20.2929642 L40.5537426,20.3785808 L40.4512439,20.458168 L40.3375909,20.5380568 L40.2179085,20.6119162 L40.0810425,20.6800477 L39.9387501,20.7484807 L39.7967592,20.8054579 L39.6427096,20.8509794 L39.4835351,20.8965009 L39.3237576,20.9251403 L39.1645831,20.9477503 L38.9993792,20.9592061 L38.8399032,20.9649339 L38.6861551,20.9477503 L38.5324069,20.9251403 L38.3277109,20.8738909 L38.1453234,20.8172151 L37.9861489,20.7427528 L37.8381286,20.6574377 L37.7127184,20.5666961 L37.6044917,20.4638959 L37.5131473,20.3556693 L37.4338615,20.2417148 L37.3654285,20.1223339 L37.3141791,19.9969236 L37.2686576,19.8718149 L37.2400182,19.7467061 L37.2174082,19.615568 L37.2002246,19.4847313 L37.1887689,19.3593211 L37.1887689,19.2342123 L37.2002246,19.0120312 L37.2345918,18.8013058 L37.2858412,18.6020362 L37.3597006,18.4084944 L37.4450157,18.2264084 L37.5532424,18.0612045 L37.6729247,17.90203 L37.8037614,17.7594361 L37.9517816,17.628298 L38.1055298,17.5089171 L38.2704322,17.400992 L38.4470918,17.3096475 L38.6237514,17.2300602 L38.8115653,17.1673551 L38.9993792,17.1161057 L39.1932224,17.08204 L39.2043767,17.08204 L39.2327146,17.0760106 L39.2725082,17.0705842 L39.3297869,17.0648564 L39.4036463,17.0534006 L39.4835351,17.0479742 L39.5688502,17.036217 L39.6598932,17.0247613 L39.7566641,17.013607 L39.8591628,17.0021512 L39.9559337,16.9967248 L40.0527046,16.9852691 L40.1437476,16.9795412 L40.2236364,16.9738134 L40.3032236,16.9680855 L40.5024933,16.9680855 L40.6393592,16.9738134 L40.7698944,16.9795412 L40.8953047,16.9795412 L41.0038327,16.9852691 L41.0945743,16.9906955 L41.1458237,16.9967248 L41.1687352,16.9967248 L41.1798894,16.9566297 L41.197073,16.854131 L41.2142567,16.7344486 L41.2257124,16.6265235 L41.2028009,16.5011132 L41.1572794,16.3871587 L41.0831185,16.28466 L40.9978034,16.1993448 L40.8953047,16.1254854 L40.7759238,16.0742361 L40.6505135,16.0398688 L40.513949,16.0287146 L40.354473,16.0229867 L40.1838427,16.0172588 L40.0071831,16.0172588 L39.8247956,16.0229867 L39.6369817,16.0344424 L39.4548957,16.0513246 L39.2725082,16.0685082 L39.0961501,16.0914197 L38.9252183,16.1140297 L38.7603159,16.1423676 L38.6122957,16.1710069 L38.4757311,16.1993448 L38.3503209,16.2337121 L38.2478222,16.2677778 L38.1679334,16.3075715 L38.1055298,16.3416372 L38.5043705,14.9696613 L38.6294793,14.9184119 L38.7603159,14.8728904 L38.8911526,14.8327953 L39.0280185,14.8044574 L39.1700095,14.7761195 L39.3126033,14.753208 L39.4603221,14.730598 L39.6143717,14.7191422 L39.7738477,14.7076865 L39.9387501,14.7019586 L40.103954,14.6962308 L40.6393592,14.6962308 L40.8325995,14.7019586 L41.0264428,14.7076865 L41.1856173,14.7191422 L41.356549,14.7474801 L41.5329072,14.7875752 L41.7152947,14.8388246 L41.8919543,14.9069561 L42.0683124,14.9868449 L42.2389427,15.0833143 L42.3987202,15.1915409 L42.5407111,15.3169512 L42.6718492,15.4535157 L42.7858037,15.6072638 L42.8711189,15.7781955 L42.933824,15.9602816 L42.9736176,16.1538233 L42.9736176,16.3702766 L42.9449783,16.5978841 L42.3474708,19.6041122" id="Fill-31" fill="#FFFFFF"></path>
                <path id="Fill-32" fill="#FFFFFF" d="M42.113834,20.9079567 L42.1478997,20.8738909 L42.3815366,19.6101416 L42.3131036,19.5986858 L42.0797682,20.8624352 L42.113834,20.8283694 L42.113834,20.9079567 L42.1421718,20.9025303 L42.1478997,20.8738909 L42.113834,20.9079567"></path>
                <path id="Fill-33" fill="#FFFFFF" d="M40.6505135,20.8678616 L40.6848807,20.9079567 L42.113834,20.9079567 L42.113834,20.8283694 L40.6848807,20.8283694 L40.718645,20.8678616 L40.6505135,20.8678616 L40.6447856,20.9079567 L40.6848807,20.9079567 L40.6505135,20.8678616"></path>
                <path id="Fill-34" fill="#FFFFFF" d="M40.7415565,20.230259 L40.6906086,20.185039 L40.6673957,20.276082 L40.6619693,20.4295287 L40.6619693,20.6345262 L40.6505135,20.8678616 L40.718645,20.8678616 L40.7301008,20.6345262 L40.7415565,20.4295287 L40.7358287,20.276082 L40.7358287,20.230259 L40.6848807,20.185039 L40.7415565,20.230259"></path>
                <path d="M38.5269805,20.9592061 L38.5269805,20.9592061 L38.6861551,20.9818161 L38.8399032,20.9989997 L38.9993792,20.9932718 L39.1645831,20.9818161 L39.3297869,20.9592061 L39.4889615,20.9308682 L39.6484375,20.8850452 L39.8079135,20.8398252 L39.9502059,20.7825464 L40.0982261,20.7144149 L40.2347906,20.6459819 L40.354473,20.5666961 L40.4741554,20.4868074 L40.5766541,20.4069187 L40.6673957,20.3155742 L40.7415565,20.230259 L40.6848807,20.185039 L40.6107199,20.2703541 L40.5308311,20.3502429 L40.4283324,20.4295287 L40.3204072,20.5094174 L40.2007249,20.5778504 L40.0638589,20.6459819 L39.9272944,20.7144149 L39.7853035,20.7713922 L39.6369817,20.8172151 L39.4775057,20.8624352 L39.3183312,20.8910745 L39.1645831,20.9136845 L38.9993792,20.9251403 L38.8399032,20.9308682 L38.6861551,20.9136845 L38.5384363,20.8910745 L38.5269805,20.9592061" id="Fill-35" fill="#FFFFFF"></path>
                <path d="M37.1489752,19.2342123 L37.1489752,19.2342123 L37.1547031,19.3593211 L37.1661588,19.4847313 L37.183041,19.6212959 L37.2059525,19.7521325 L37.2345918,19.8772413 L37.2798119,20.0083794 L37.3313627,20.1395175 L37.4052221,20.2588984 L37.4851108,20.3785808 L37.5761539,20.4868074 L37.6898069,20.5947325 L37.820945,20.686077 L37.9689653,20.77712 L38.1338677,20.8509794 L38.321983,20.9079567 L38.5269805,20.9592061 L38.5384363,20.8910745 L38.3331373,20.8398252 L38.1567791,20.7825464 L38.003031,20.708687 L37.8550108,20.6290998 L37.7353284,20.5380568 L37.6328296,20.4409844 L37.5417866,20.3327578 L37.4621994,20.2248326 L37.3997957,20.1051503 L37.3485463,19.9857694 L37.3027234,19.866087 L37.274084,19.7406768 L37.251474,19.6101416 L37.2345918,19.4847313 L37.2231361,19.3593211 L37.2285625,19.2342123 L37.1489752,19.2342123" id="Fill-36" fill="#FFFFFF"></path>
                <path d="M39.1932224,17.0479742 L39.1932224,17.0479742 L38.9939528,17.08204 L38.8001096,17.1332894 L38.6122957,17.195693 L38.4302096,17.2755817 L38.25355,17.3666248 L38.0826183,17.4802778 L37.9288701,17.6002616 L37.7808499,17.7368261 L37.6442854,17.8788171 L37.524603,18.0385945 L37.41095,18.2092248 L37.3253334,18.3970387 L37.251474,18.5908819 L37.2002246,18.7958794 L37.1661588,19.0120312 L37.1489752,19.2342123 L37.2285625,19.2342123 L37.2345918,19.0120312 L37.2686576,18.8070337 L37.319907,18.6134919 L37.3937664,18.4199502 L37.4790815,18.2432906 L37.5815803,18.084116 L37.7009612,17.92464 L37.8263714,17.7823476 L37.9746931,17.6569374 L38.1281398,17.5375565 L38.2876158,17.4350577 L38.4642754,17.3437133 L38.6349057,17.264126 L38.8227196,17.2014209 L39.0051071,17.1501715 L39.1932224,17.1161057 L39.1932224,17.0479742" id="Fill-37" fill="#FFFFFF"></path>
                <path id="Fill-38" fill="#FFFFFF" d="M40.3659287,16.9282918 L40.3032236,16.9282918 L40.2236364,16.9394461 L40.1437476,16.9454755 L40.0527046,16.9509019 L39.9559337,16.9620561 L39.8591628,16.9680855 L39.7566641,16.9795412 L39.6598932,16.9906955 L39.5688502,17.0021512 L39.4835351,17.013607 L39.4036463,17.0193349 L39.3297869,17.0307906 L39.2725082,17.036217 L39.2269867,17.0419449 L39.2043767,17.0479742 L39.1932224,17.0479742 L39.1932224,17.1161057 L39.2043767,17.1161057 L39.2384425,17.1103779 L39.2725082,17.10465 L39.3297869,17.0989221 L39.4036463,17.0874664 L39.4835351,17.08204 L39.5688502,17.0705842 L39.6598932,17.0591285 L39.7566641,17.0479742 L39.8591628,17.036217 L39.9559337,17.0307906 L40.0527046,17.0193349 L40.1437476,17.013607 L40.2236364,17.0078791 L40.3659287,17.0078791 L40.3659287,16.9282918"></path>
                <path id="Fill-39" fill="#FFFFFF" d="M41.1343679,16.9906955 L41.1687352,16.9620561 L41.1458237,16.9620561 L41.0945743,16.9566297 L41.0038327,16.9509019 L40.8953047,16.9394461 L40.6393592,16.9394461 L40.5024933,16.9282918 L40.3659287,16.9282918 L40.3659287,17.0078791 L40.6393592,17.0078791 L40.7698944,17.0193349 L41.0038327,17.0193349 L41.0945743,17.0247613 L41.1458237,17.0307906 L41.1687352,17.0307906 L41.2028009,17.0021512 L41.1687352,17.0307906 L41.197073,17.036217 L41.2028009,17.0021512 L41.1343679,16.9906955"></path>
                <path id="Fill-40" fill="#FFFFFF" d="M41.1916466,16.6265235 L41.1856173,16.6265235 L41.1798894,16.7344486 L41.1630073,16.8484031 L41.1458237,16.9509019 L41.1343679,16.9906955 L41.2028009,17.0021512 L41.2142567,16.9620561 L41.2311388,16.8598589 L41.2483224,16.7344486 L41.265506,16.6265235 L41.1916466,16.6265235"></path>
                <path d="M40.513949,16.0627803 L40.513949,16.0685082 L40.6447856,16.0742361 L40.764468,16.1083018 L40.8784225,16.1595512 L40.9751934,16.2279842 L41.0544792,16.3075715 L41.1232137,16.4043423 L41.1687352,16.5068411 L41.1916466,16.6265235 L41.2597782,16.6265235 L41.2368667,16.4956868 L41.1916466,16.3702766 L41.1117579,16.26205 L41.0207149,16.1710069 L40.9124883,16.0914197 L40.7873795,16.0398688 L40.6562414,16.0058031 L40.513949,15.9886195 L40.513949,16.0627803" id="Fill-41" fill="#FFFFFF"></path>
                <path id="Fill-42" fill="#FFFFFF" d="M38.071464,16.3362108 L38.1281398,16.3702766 L38.185117,16.3416372 L38.2592779,16.3018436 L38.3560488,16.2677778 L38.4811576,16.2337121 L38.6177221,16.2050727 L38.7660438,16.1767348 L38.9312477,16.1480955 L39.0961501,16.1254854 L39.2725082,16.1025739 L39.4548957,16.0856918 L39.6369817,16.0685082 L39.8247956,16.0570524 L40.354473,16.0570524 L40.513949,16.0627803 L40.513949,15.9943473 L40.354473,15.9886195 L40.1838427,15.9774652 L40.0071831,15.9774652 L39.8247956,15.9886195 L39.6369817,16.0000752 L39.4548957,16.0172588 L39.2725082,16.0344424 L39.0961501,16.0570524 L38.9194905,16.0799639 L38.754588,16.1083018 L38.6065678,16.1369412 L38.4697018,16.1652791 L38.344593,16.1993448 L38.2363664,16.2337121 L38.1510513,16.2735057 L38.0826183,16.3132993 L38.139897,16.3473651 L38.071464,16.3362108"></path>
                <path id="Fill-43" fill="#FFFFFF" d="M38.4929148,14.9355955 L38.4697018,14.9639334 L38.071464,16.3362108 L38.139897,16.3473651 L38.5384363,14.9753891 L38.5155248,15.003727 L38.4929148,14.9355955 L38.4757311,14.9410219 L38.4697018,14.9639334 L38.4929148,14.9355955"></path>
                <path id="Fill-44" fill="#FFFFFF" d="M41.0264428,14.6736207 L41.0264428,14.6736207 L40.8325995,14.662165 L40.6393592,14.6564371 L40.103954,14.6564371 L39.9387501,14.6678929 L39.7738477,14.6736207 L39.6143717,14.6850765 L39.4603221,14.6962308 L39.3068754,14.7191422 L39.1645831,14.7417523 L39.0219892,14.7703916 L38.8854247,14.799031 L38.7488602,14.8388246 L38.6177221,14.8840447 L38.4929148,14.9355955 L38.5155248,15.003727 L38.640935,14.9524776 L38.7714702,14.9069561 L38.8968804,14.8671625 L39.033445,14.8388246 L39.1760388,14.8101853 L39.3183312,14.7875752 L39.4603221,14.7646638 L39.6143717,14.753208 L39.7738477,14.7417523 L39.9387501,14.7363259 L40.6393592,14.7363259 L40.8325995,14.7417523 L41.0264428,14.7417523 L41.0264428,14.6736207"></path>
                <path d="M42.979044,16.603612 L42.979044,16.603612 L43.0076834,16.3702766 L43.0076834,16.1538233 L42.9678897,15.9545537 L42.9051846,15.7667398 L42.8141416,15.5903816 L42.6998857,15.4309056 L42.5633211,15.2886133 L42.4213302,15.163203 L42.2561263,15.0549764 L42.0851946,14.9524776 L41.9031086,14.8728904 L41.7267504,14.8044574 L41.5389365,14.753208 L41.3622769,14.7134144 L41.1856173,14.6850765 L41.0264428,14.6736207 L41.0264428,14.7417523 L41.1856173,14.753208 L41.3508212,14.7818474 L41.5274808,14.821641 L41.7038389,14.8728904 L41.8804986,14.9410219 L42.0511288,15.0209106 L42.2220606,15.1119536 L42.3755072,15.2201803 L42.5181011,15.3455905 L42.6432099,15.4764272 L42.7571644,15.6241459 L42.8370531,15.7896513 L42.8994568,15.9660094 L42.9392504,16.1538233 L42.9392504,16.3702766 L42.9109125,16.5924577 L42.979044,16.603612" id="Fill-45" fill="#FFFFFF"></path>
                <path d="M42.3815366,19.6101416 L42.3815366,19.6101416 L42.979044,16.603612 L42.9109125,16.5924577 L42.3131036,19.5986858 L42.3815366,19.6101416" id="Fill-46" fill="#FFFFFF"></path>
                <path d="M40.9691641,18.1181818 L40.9580098,18.084116 L40.9353998,18.0554767 L40.8953047,18.0385945 L40.8386289,18.0214109 L40.7759238,18.015683 L40.7020644,18.0099552 L40.6161463,18.0099552 L40.5308311,18.015683 L40.4397881,18.0271388 L40.3490466,18.0385945 L40.2577021,18.0497488 L40.172387,18.0612045 L40.0870718,18.0783882 L40.012911,18.0898439 L39.9387501,18.106726 L39.8820743,18.1181818 L39.8419792,18.1239097 L39.7967592,18.1410933 L39.7394805,18.1579754 L39.6767754,18.1805854 L39.602916,18.2149527 L39.534483,18.2490184 L39.4548957,18.2891135 L39.3810363,18.3403629 L39.3068754,18.3916123 L39.2327146,18.4543174 L39.1700095,18.5167211 L39.1073043,18.5908819 L39.0566579,18.6701677 L39.0165628,18.7560858 L38.982497,18.8468273 L38.9653134,18.9438997 L38.9595856,19.13714 L38.9879234,19.2911896 L39.033445,19.4048426 L39.1018779,19.4901577 L39.1871931,19.5474365 L39.2842654,19.5815022 L39.3810363,19.5986858 L39.4775057,19.6041122 L39.6484375,19.5986858 L39.8079135,19.5815022 L39.9559337,19.5528629 L40.0870718,19.5130692 L40.2124821,19.4675477 L40.3204072,19.4162984 L40.422906,19.3593211 L40.513949,19.2911896 L40.5935363,19.228183 L40.6619693,19.1543236 L40.7246744,19.0858906 L40.7759238,19.0120312 L40.8154159,18.9438997 L40.8440553,18.8754667 L40.8669668,18.8070337 L40.8838489,18.74463 L40.9067604,18.5848526 L40.9353998,18.4199502 L40.9580098,18.2604742 L40.9691641,18.1181818" id="Fill-47" fill="#F2AD3D"></path>
                <path d="M42.774348,20.8678616 L44.3799608,20.8678616 L44.9551597,17.628298 L44.9774682,17.5031893 L45.011534,17.377779 L45.0462027,17.2526703 L45.0914227,17.1275615 L45.1487015,17.0021512 L45.216833,16.8827703 L45.2906924,16.7688158 L45.3820369,16.6605892 L45.4845356,16.5638183 L45.5981886,16.4727753 L45.7290253,16.3871587 L45.877347,16.3190272 L46.0422494,16.26205 L46.2246369,16.2165284 L46.4239065,16.1824627 L46.6457862,16.1710069 L46.7880786,16.1710069 L47.0443255,14.7076865 L46.8848495,14.7191422 L46.7314028,14.7363259 L46.5888089,14.7646638 L46.4522444,14.8044574 L46.3271357,14.8499789 L46.2074533,14.9069561 L46.0934988,14.9696613 L45.9855736,15.0380942 L45.8830749,15.1176815 L45.786304,15.1972688 L45.6949595,15.2886133 L45.6039165,15.3796563 L45.5186014,15.4764272 L45.4332862,15.5846538 L45.3479711,15.6868511 L45.2680824,15.8008056 L45.4387126,14.7703916 L43.8391291,14.7703916 L42.774348,20.8678616" id="Fill-48" fill="#FFFFFF"></path>
                <path d="M42.774348,20.8678616 L44.3799608,20.8678616 L44.9551597,17.628298 L44.9774682,17.5031893 L45.011534,17.377779 L45.0462027,17.2526703 L45.0914227,17.1275615 L45.1487015,17.0021512 L45.216833,16.8827703 L45.2906924,16.7688158 L45.3820369,16.6605892 L45.4845356,16.5638183 L45.5981886,16.4727753 L45.7290253,16.3871587 L45.877347,16.3190272 L46.0422494,16.26205 L46.2246369,16.2165284 L46.4239065,16.1824627 L46.6457862,16.1710069 L46.7880786,16.1710069 L47.0443255,14.7076865 L46.8848495,14.7191422 L46.7314028,14.7363259 L46.5888089,14.7646638 L46.4522444,14.8044574 L46.3271357,14.8499789 L46.2074533,14.9069561 L46.0934988,14.9696613 L45.9855736,15.0380942 L45.8830749,15.1176815 L45.786304,15.1972688 L45.6949595,15.2886133 L45.6039165,15.3796563 L45.5186014,15.4764272 L45.4332862,15.5846538 L45.3479711,15.6868511 L45.2680824,15.8008056 L45.4387126,14.7703916 L43.8391291,14.7703916 L42.774348,20.8678616" id="Stroke-49" stroke="#FFFFFF" stroke-width="0.216"></path>
                <path d="M27.6976858,20.8678616 L29.3319379,20.8678616 L29.878196,17.628298 L29.900806,17.5031893 L29.9580847,17.264126 L29.9978784,17.1501715 L30.0433999,17.036217 L30.1003771,16.9282918 L30.1685087,16.8254916 L30.2483974,16.7290222 L30.3394404,16.6434056 L30.4419392,16.5583919 L30.5670479,16.4899589 L30.7039139,16.4272538 L30.8633899,16.3760044 L31.0397481,16.3304829 L31.2332898,16.3018436 L31.4554709,16.28466 L31.4723531,16.28466 L31.4952646,16.2903878 L31.5236025,16.2961157 L31.5522418,16.2961157 L31.5808812,16.3018436 L31.6034912,16.3075715 L31.6206748,16.3132993 L31.6261012,16.3132993 L31.6321306,16.2903878 L31.6490127,16.2222563 L31.6716227,16.1197576 L31.7002621,15.9943473 L31.7400557,15.8463271 L31.7798494,15.6868511 L31.8314002,15.5276765 L31.8826496,15.3682005 L31.9278696,15.2599739 L31.9851483,15.1517473 L32.0418241,15.0438221 L32.0988014,14.9467498 L32.1500507,14.8614346 L32.1898444,14.7933031 L32.2184837,14.753208 L32.229638,14.7363259 L32.2239101,14.7363259 L32.2009986,14.730598 L32.1729622,14.7248701 L32.1331686,14.7191422 L32.0930735,14.7191422 L32.047552,14.7134144 L32.0077583,14.7076865 L31.9679647,14.7076865 L31.7913051,14.7191422 L31.6321306,14.7363259 L31.4838088,14.7646638 L31.3472443,14.799031 L31.2164077,14.844251 L31.0967253,14.9015297 L30.9884987,14.9582055 L30.8859999,15.0266385 L30.789229,15.1004979 L30.698186,15.185813 L30.6128709,15.2714296 L30.5275558,15.3682005 L30.4419392,15.4649714 L30.3623519,15.573198 L30.2770367,15.6868511 L30.1914201,15.8008056 L30.3964176,14.7703916 L28.7624669,14.7703916 L27.6976858,20.8678616" id="Fill-50" fill="#FFFFFF"></path>
                <path d="M27.6976858,20.8678616 L29.3319379,20.8678616 L29.878196,17.628298 L29.900806,17.5031893 L29.9580847,17.264126 L29.9978784,17.1501715 L30.0433999,17.036217 L30.1003771,16.9282918 L30.1685087,16.8254916 L30.2483974,16.7290222 L30.3394404,16.6434056 L30.4419392,16.5583919 L30.5670479,16.4899589 L30.7039139,16.4272538 L30.8633899,16.3760044 L31.0397481,16.3304829 L31.2332898,16.3018436 L31.4554709,16.28466 L31.4723531,16.28466 L31.4952646,16.2903878 L31.5236025,16.2961157 L31.5522418,16.2961157 L31.5808812,16.3018436 L31.6034912,16.3075715 L31.6206748,16.3132993 L31.6261012,16.3132993 L31.6321306,16.2903878 L31.6490127,16.2222563 L31.6716227,16.1197576 L31.7002621,15.9943473 L31.7400557,15.8463271 L31.7798494,15.6868511 L31.8314002,15.5276765 L31.8826496,15.3682005 L31.9278696,15.2599739 L31.9851483,15.1517473 L32.0418241,15.0438221 L32.0988014,14.9467498 L32.1500507,14.8614346 L32.1898444,14.7933031 L32.2184837,14.753208 L32.229638,14.7363259 L32.2239101,14.7363259 L32.2009986,14.730598 L32.1729622,14.7248701 L32.1331686,14.7191422 L32.0930735,14.7191422 L32.047552,14.7134144 L32.0077583,14.7076865 L31.9679647,14.7076865 L31.7913051,14.7191422 L31.6321306,14.7363259 L31.4838088,14.7646638 L31.3472443,14.799031 L31.2164077,14.844251 L31.0967253,14.9015297 L30.9884987,14.9582055 L30.8859999,15.0266385 L30.789229,15.1004979 L30.698186,15.185813 L30.6128709,15.2714296 L30.5275558,15.3682005 L30.4419392,15.4649714 L30.3623519,15.573198 L30.2770367,15.6868511 L30.1914201,15.8008056 L30.3964176,14.7703916 L28.7624669,14.7703916 L27.6976858,20.8678616" id="Stroke-51" stroke="#FFFFFF" stroke-width="0.216"></path>
            </g>
        </g>
    </g>
</svg>