<?xml version="1.0" encoding="UTF-8" standalone="no"?>
<svg width="88px" height="56px" viewBox="0 0 88 56" version="1.1" xmlns="http://www.w3.org/2000/svg" xmlns:xlink="http://www.w3.org/1999/xlink" xmlns:sketch="http://www.bohemiancoding.com/sketch/ns">
    <!-- Generator: Sketch 3.0.1 (7597) - http://www.bohemiancoding.com/sketch -->
    <title>BTUICardAmEx</title>
    <description>Created with Sketch.</description>
    <defs></defs>
    <g id="Page-1" stroke="none" stroke-width="1" fill="none" fill-rule="evenodd" sketch:type="MSPage">
        <g id="AmEx" sketch:type="MSLayerGroup" transform="translate(0.500000, 0.500000)" fill="#008BB6">
            <g id="amex" transform="translate(0.000000, 16.000000)" sketch:type="MSShapeGroup">
                <g id="_x34__x5F_COL_x5F_SQ">
                    <g id="Express" transform="translate(18.500000, 11.500000)">
                        <path d="M35.9762453,10.3339789 L35.9762453,8.34951942 C35.9762453,8.34951942 35.8670911,6.79646417 34.1900857,6.79646417 L31.5842773,6.79646417 L31.5842773,10.3339789 L28.9030533,10.3339789 L28.9030533,0.135582743 L35.4046743,0.135582743 C35.4046743,0.135582743 38.7983775,-0.261309156 38.7983775,3.12090007 C38.7983775,4.88102935 37.2980034,5.50225146 37.2980034,5.50225146 C37.2980034,5.50225146 38.5840383,6.08896122 38.5840383,7.81266082 L38.5840383,10.3320616 L35.9762453,10.3320616 M31.5822927,4.39785661 L34.3528247,4.39785661 C35.1546119,4.39785661 35.815491,3.96645237 35.815491,3.43151112 C35.815491,2.89656986 35.1546119,2.46516562 34.3528247,2.46516562 L31.5822927,2.46516562 L31.5822927,4.39785661" id="SVGID_17_"></path>
                        <path d="M18.1146493,10.3482861 L15.7747802,10.3482861 L12.9347864,7.32845645 L10.0769311,10.3482861 L8.45152583,10.3482861 L0.110160485,10.3482861 L0.110160485,0.132633768 L8.45152583,0.132633768 L9.86259192,0.132633768 L12.9347864,3.37679363 L16.0248426,0.149889937 L18.0789261,0.149889937 L18.0789261,0.132633768 L24.5805471,0.132633768 C24.5805471,0.132633768 27.9742503,-0.229745792 27.9742503,3.13328991 C27.9742503,6.1358634 26.8489698,7.0696139 23.3838201,7.0696139 L20.7581655,7.0696139 L20.7581655,10.3482861 L18.1146493,10.3482861 M14.7566692,5.32865814 L18.0789261,8.88342905 L18.0789261,1.79114339 L14.7566692,5.32865814 M2.80726149,8.14141377 L8.45152583,8.14141377 L11.095042,5.32865814 L8.45152583,2.53124133 L2.80726149,2.53124133 L2.80726149,4.0996354 L8.30863307,4.0996354 L8.30863307,6.41387946 L2.80726149,6.41387946 L2.80726149,8.14141377 M20.7581655,4.4121638 L23.5267129,4.4121638 C24.3304847,4.4121638 24.9913638,3.98075957 24.9913638,3.44581831 C24.9913638,2.91279441 24.3304847,2.47947282 23.5267129,2.47947282 L20.7581655,2.47947282 L20.7581655,4.4121638" id="SVGID_20_"></path>
                        <path d="M54.2486581,10.30437 L49.4796119,10.30437 L49.4796119,7.95561357 L53.6592254,7.95561357 C53.6592254,7.95561357 55.1595995,8.12817526 55.1595995,7.14649096 C55.1595995,6.22807927 52.8911768,6.30093865 52.8911768,6.30093865 C52.8911768,6.30093865 49.1938264,6.6115497 49.1938264,3.26385282 C49.1938264,-0.0665878937 52.5339449,0.123229971 52.5339449,0.123229971 L57.6800691,0.123229971 L57.6800691,2.50458136 L53.5361789,2.50458136 C53.5361789,2.50458136 52.1052665,2.2265653 52.1052665,3.23125783 C52.1052665,4.07297543 54.0501959,3.9540996 54.0501959,3.9540996 C54.0501959,3.9540996 58.142486,3.66266207 58.142486,6.73234289 C58.142486,10.0263539 55.5069083,10.3177914 54.5721514,10.3177914 C54.3717046,10.3158741 54.2486581,10.30437 54.2486581,10.30437" id="SVGID_23_"></path>
                        <path d="M39.9057965,10.3023825 L39.9057965,0.121242478 L48.2630388,0.121242478 L48.2630388,2.4853377 L42.6028975,2.4853377 L42.6028975,4.05564912 L48.1221306,4.05564912 L48.1221306,6.36989319 L42.6028975,6.36989319 L42.6028975,8.09551014 L48.2630388,8.09551014 L48.2630388,10.3023825 L39.9057965,10.3023825" id="SVGID_26_"></path>
                        <path d="M63.6974424,10.30437 L58.9283962,10.30437 L58.9283962,7.95561357 L63.0921327,7.95561357 C63.0921327,7.95561357 64.6103684,8.12817526 64.6103684,7.14649096 C64.6103684,6.22807927 62.3419457,6.30093865 62.3419457,6.30093865 C62.3419457,6.30093865 58.6445953,6.6115497 58.6445953,3.26385282 C58.6445953,-0.0665878937 61.9847138,0.123229971 61.9847138,0.123229971 L67.1129765,0.123229971 L67.1129765,2.50458136 L62.9849632,2.50458136 C62.9849632,2.50458136 61.5560355,2.2265653 61.5560355,3.23125783 C61.5560355,4.07297543 63.5029494,3.9540996 63.5029494,3.9540996 C63.5029494,3.9540996 67.5932549,3.66266207 67.5932549,6.73234289 C67.5932549,10.0263539 64.9576772,10.3177914 64.0229203,10.3177914 C63.8185043,10.3158741 63.6974424,10.30437 63.6974424,10.30437" id="SVGID_29_"></path>
                    </g>
                    <g id="American" transform="translate(-0.500000, 0.500000)">
                        <path d="M45.3128845,10.3904697 L45.3128845,8.40601025 C45.3128845,8.40601025 45.2037303,6.852955 43.5267249,6.852955 L40.9189319,6.852955 L40.9189319,10.3904697 L38.2396925,10.3904697 L38.2396925,0.193990925 L44.7413134,0.193990925 C44.7413134,0.193990925 48.1350167,-0.202900973 48.1350167,3.17930825 C48.1350167,4.93943754 46.6346426,5.56065964 46.6346426,5.56065964 C46.6346426,5.56065964 47.9365545,6.14928675 47.9365545,7.8749037 L47.9365545,10.3923871 L45.3128845,10.3923871 M40.9189319,4.45434744 L43.6874793,4.45434744 C44.4912511,4.45434744 45.1521302,4.0229432 45.1521302,3.48800195 C45.1521302,2.95306069 44.4912511,2.52165645 43.6874793,2.52165645 L40.9189319,2.52165645 L40.9189319,4.45434744" id="SVGID_2_"></path>
                        <path d="M76.9279095,10.3904697 L72.6768496,3.57428279 L72.6768496,10.3904697 L70.3727038,10.3904697 L69.9420408,10.3904697 L67.4255404,10.3904697 L66.4768912,8.25070473 L61.5828139,8.25070473 L60.6520263,10.3904697 L58.187126,10.3904697 L57.7405861,10.3904697 L56.4545512,10.3904697 C56.4545512,10.3904697 52.8484934,9.89004083 52.8484934,5.57599846 C52.8484934,-0.084025139 56.9407835,0.140305064 57.0816917,0.105792725 L60.386087,0.192073573 L60.386087,2.48714412 L57.673109,2.52165645 C57.673109,2.52165645 55.9028264,2.52165645 55.6884872,4.74961967 C55.6626871,5.00462751 55.6507794,5.24046183 55.652764,5.45903997 C55.6626871,8.90643917 58.7507586,7.83655666 58.8499897,7.80396167 L62.1722466,0.193990925 L65.9231817,0.193990925 L69.9400562,9.44329777 L69.9400562,0.193990925 L73.7267146,0.193990925 L77.9241896,6.90664086 L77.9241896,0.193990925 L80.6212906,0.193990925 L80.6212906,10.3904697 L76.9279095,10.3904697 M62.7279407,5.64502313 L65.3337491,5.64502313 L64.0496988,2.6079373 L62.7279407,5.64502313" id="SVGID_5_"></path>
                        <path d="M23.9166771,10.4389684 L23.9166771,3.4003686 L20.558697,10.4389684 L18.3617207,10.4389684 L14.9858791,3.43296359 L14.9858791,10.4389684 L12.64601,10.4389684 L12.2887781,10.4389684 L9.69884665,10.4389684 L8.77004365,8.29920338 L3.87596634,8.29920338 L2.92930175,10.4389684 L3.39284156e-13,10.4389684 L4.44753741,0.242489581 L8.21633418,0.242489581 L12.2887781,9.61258962 L12.2887781,0.242489581 L16.5219763,0.242489581 L19.4691397,6.57550379 L22.3984414,0.242489581 L26.6316397,0.242489581 L26.6316397,10.4389684 L23.9166771,10.4389684 M5.01910849,5.69352179 L7.62690151,5.69352179 L6.323005,2.65643596 L5.01910849,5.69352179" id="SVGID_8_"></path>
                        <path d="M28.4872611,10.3904697 L28.4872611,0.193990925 L36.846488,0.193990925 L36.846488,2.57342496 L31.1843621,2.57342496 L31.1843621,4.14373639 L36.7035952,4.14373639 L36.7035952,6.4560631 L31.1843621,6.4560631 L31.1843621,8.1835974 L36.846488,8.1835974 L36.846488,10.3904697 L28.4872611,10.3904697" id="SVGID_11_"></path>
                        <path d="M49.2424357,10.4249821 L49.2424357,0.193990925 L51.9395367,0.193990925 L51.9395367,10.4249821 L49.2424357,10.4249821" id="SVGID_14_"></path>
                    </g>
                </g>
            </g>
        </g>
    </g>
</svg>