<?xml version="1.0" encoding="UTF-8" standalone="no"?>
<svg width="88px" height="56px" viewBox="0 0 88 56" version="1.1" xmlns="http://www.w3.org/2000/svg" xmlns:xlink="http://www.w3.org/1999/xlink" xmlns:sketch="http://www.bohemiancoding.com/sketch/ns">
    <!-- Generator: Sketch 3.0.1 (7597) - http://www.bohemiancoding.com/sketch -->
    <title>BTUICardMaestro</title>
    <description>Created with Sketch.</description>
    <defs></defs>
    <g id="Page-1" stroke="none" stroke-width="1" fill="none" fill-rule="evenodd" sketch:type="MSPage">
        <g id="Maestro" sketch:type="MSLayerGroup" transform="translate(0.500000, 0.500000)">
            <g transform="translate(15.000000, 10.000000)" id="Shape" sketch:type="MSShapeGroup">
                <path d="M28.4119492,29.6006491 C31.8438106,26.490472 34,21.9967545 34,17.0004522 C34,12.0035469 31.8438106,7.51043246 28.4119492,4.40025538 C25.3949849,1.66603708 21.3921083,0 16.9998481,0 C7.61150963,0 0,7.61143181 0,17.0004522 C0,26.3891712 7.61150963,34 16.9998481,34 C21.3921083,33.9996985 25.3949849,32.3345659 28.4119492,29.6006491 L28.4119492,29.6006491 L28.4119492,29.6006491 L28.4119492,29.6006491 L28.4119492,29.6006491 Z" fill="#009DDD"></path>
                <path d="M39.3069351,0.5 C34.8647534,0.5 30.816381,2.16602231 27.7651265,4.89991487 C27.143387,5.45706457 26.56281,6.05913597 26.0292321,6.69979783 L29.5000994,6.69979783 C29.9750052,7.27021299 30.4133562,7.87107844 30.8114661,8.49998227 L24.7184798,8.49998227 C24.3532385,9.07793463 24.0214803,9.67849859 23.7271984,10.3001667 L31.8012116,10.3001667 C32.0773696,10.8826414 32.3215805,11.4832053 32.5304654,12.1000497 L22.9991733,12.1000497 C22.8007327,12.6861422 22.6336249,13.2870076 22.5,13.8999326 L33.0302531,13.8999326 C33.2830652,15.0606611 33.4169972,16.2648039 33.4169972,17.5003015 C33.4169972,19.3876159 33.105513,21.2034778 32.5307726,22.8999503 L22.9991733,22.8999503 C23.207751,23.5164932 23.4510404,24.1176601 23.7271984,24.7001348 L31.8012116,24.7001348 C31.5066225,25.3215014 31.1764002,25.9226683 30.8111589,26.5003192 L24.7184798,26.5003192 C25.1159754,27.129223 25.5543263,27.73039 26.0289249,28.3005037 L29.5000994,28.3005037 C28.9662143,28.9411655 28.3868661,29.5435384 27.7651265,30.1006881 C30.816381,32.8345807 34.8647534,34.5 39.3069351,34.5 C48.8019795,34.5 56.5,26.8892387 56.5,17.500603 C56.5,8.11136432 48.8019795,0.5 39.3069351,0.5 L39.3069351,0.5 L39.3069351,0.5 L39.3069351,0.5 L39.3069351,0.5 Z" fill="#ED1C2E"></path>
                <path d="M15.098907,21.7118078 L12.9514329,21.7118078 L14.2277095,14.9370604 L11.2891906,21.7118078 L9.331,21.7118078 L8.97308765,14.9755953 L7.69280342,21.7118078 L5.74355296,21.7118078 L7.4091864,12.8987172 L10.7601832,12.8987172 L10.9374438,18.3549537 L13.3000969,12.8987172 L16.7919773,12.8987172 L15.098907,21.7118078 L15.098907,21.7118078 Z" fill="#FFFFFF"></path>
                <path d="M39.0987643,21.6239482 C38.5108756,21.7864114 38.0518476,21.8563908 37.5555178,21.8563908 C36.4565019,21.8563908 35.8568985,21.3011797 35.8568985,20.2826247 C35.8568985,20.0810099 35.8787863,19.8664475 35.9200957,19.6395539 L36.0508062,18.9382183 L36.1513053,18.3709843 L37.1467394,12.8987172 L39.2824988,12.8987172 L38.9729864,14.5446207 L40.0689195,14.5446207 L39.7742044,16.2870157 L38.6739554,16.2870157 L38.1079544,19.2773256 C38.0829838,19.4086526 38.0712692,19.507302 38.0712692,19.5741987 C38.0712692,19.9438256 38.2935386,20.105364 38.8043575,20.105364 C39.0488231,20.105364 39.2381066,20.0831679 39.3833062,20.0384674 L39.0987643,21.6239482 L39.0987643,21.6239482 L39.0987643,21.6239482 L39.0987643,21.6239482 Z" fill="#FFFFFF"></path>
                <path d="M45.3707081,14.6035021 C45.1909813,14.5322895 45.1484387,14.5322895 45.127784,14.526124 C45.0140289,14.5008451 44.9532979,14.4860476 44.9428164,14.484198 C44.8777694,14.4721751 44.8053238,14.4663178 44.7267125,14.4663178 C44.0213693,14.4663178 43.5136332,14.7829207 42.8560733,15.6300724 L43.0456651,14.5443124 L41.1007306,14.5443124 L39.7917764,21.7118078 L41.9407919,21.7118078 C42.7093323,17.3283834 43.038883,16.5604595 44.0700775,16.5604595 C44.1471473,16.5604595 44.2374732,16.5666251 44.341055,16.578648 L44.5923027,16.6304389 L45.3707081,14.6035021 L45.3707081,14.6035021 L45.3707081,14.6035021 L45.3707081,14.6035021 Z" fill="#FFFFFF"></path>
                <path d="M30.5859378,16.8089327 C30.5859378,17.7143492 31.0921325,18.3379984 32.2401649,18.806583 C33.1199942,19.1660368 33.2559454,19.2720849 33.2559454,19.5970113 C33.2559454,20.0437081 32.86813,20.2450146 32.0089554,20.2450146 C31.3603356,20.2450146 30.7573411,20.1571549 30.0615546,19.9613975 L29.7637567,21.6146998 L29.8599399,21.6310386 L30.2582368,21.7037926 C30.3858645,21.7259887 30.575148,21.7478765 30.8257791,21.7669898 C31.3424554,21.8067579 31.7422937,21.8264877 32.0240611,21.8264877 C34.3164265,21.8264877 35.3753661,21.0696619 35.3753661,19.4348564 C35.3753661,18.4511369 34.9326769,17.8743462 33.8438342,17.4399806 C32.9331769,17.0771358 32.8280537,16.9966748 32.8280537,16.6621917 C32.8280537,16.2762259 33.1893571,16.0773858 33.8913092,16.0773858 C34.3179679,16.0773858 34.899691,16.1177704 35.4521277,16.1849753 L35.7616401,14.5258157 C35.1990303,14.4484376 34.345713,14.3852403 33.8499998,14.3852403 C31.4195252,14.3855486 30.5782308,15.4867225 30.5859378,16.8089327 L30.5859378,16.8089327 L30.5859378,16.8089327 L30.5859378,16.8089327 L30.5859378,16.8089327 Z" fill="#FFFFFF"></path>
                <path d="M22.0805099,21.7118078 L20.2958807,21.7118078 L20.3374984,20.9688545 C19.7940019,21.5570516 19.0695453,21.8357361 18.084901,21.8357361 C16.9211464,21.8357361 16.1223945,21.0372926 16.1223945,19.8781621 C16.1223945,18.1320678 17.50996,17.1144376 19.8948092,17.1144376 C20.1392747,17.1144376 20.4500204,17.1338592 20.7697061,17.1696196 C20.8362944,16.9340941 20.8544829,16.8323619 20.8544829,16.7041177 C20.8544829,16.2293675 20.4799235,16.0521068 19.4770907,16.0521068 C18.863923,16.0521068 18.170911,16.1297932 17.6921531,16.2518719 L17.3946635,16.3280169 L17.2019889,16.3742588 L17.4997868,14.7625742 C18.5707493,14.4866642 19.2770173,14.3821575 20.0708367,14.3821575 C21.9165053,14.3821575 22.8919012,15.1103134 22.8919012,16.4843145 C22.8919012,16.837911 22.8595319,17.1067306 22.7177234,17.9045576 L22.2685604,20.4472458 L22.1930319,20.9034993 L22.1381582,21.2678855 L22.1014729,21.5179001 L22.0805099,21.7118078 L22.0805099,21.7118078 L22.0805099,21.7118078 L22.0805099,21.7118078 Z M20.5135259,18.5186501 C20.288482,18.4946043 20.189216,18.4884387 20.0335349,18.4884387 C18.816448,18.4884387 18.1998892,18.8555994 18.1998892,19.5794394 C18.1998892,20.0255197 18.5007699,20.3103698 18.9702794,20.3103698 C19.8457928,20.3106781 20.4765324,19.5785146 20.5135259,18.5186501 L20.5135259,18.5186501 L20.5135259,18.5186501 L20.5135259,18.5186501 L20.5135259,18.5186501 Z" fill="#FFFFFF"></path>
                <path d="M29.1259267,21.5570516 C28.3897556,21.7534255 27.6776302,21.8489921 26.9251203,21.8471425 C24.5242405,21.8459093 23.2729346,20.7447354 23.2729346,18.6367211 C23.2729346,16.1763434 24.8648892,14.3648938 27.0259276,14.3648938 C28.7939098,14.3648938 29.9225206,15.3797495 29.9225206,16.9701628 C29.9225206,17.4982454 29.845759,18.0130719 29.65925,18.7399947 L25.3889642,18.7399947 C25.3726253,18.8500504 25.3683094,18.8996834 25.3683094,18.9650386 C25.3683094,19.7958515 26.0049063,20.2197357 27.2522047,20.2197357 C28.0192037,20.2197357 28.7125241,20.0794685 29.4822976,19.7662567 L29.1259267,21.5570516 L29.1259267,21.5570516 L29.1259267,21.5570516 L29.1259267,21.5570516 Z M27.9819019,17.2923148 C27.9936166,17.1431075 27.9997821,17.0210289 27.9997821,16.9266954 C27.9997821,16.344664 27.623373,16.0030904 26.9840016,16.0030904 C26.3008545,16.0030904 25.8122317,16.4611936 25.6140081,17.2879988 L27.9819019,17.2923148 L27.9819019,17.2923148 L27.9819019,17.2923148 L27.9819019,17.2923148 Z" fill="#FFFFFF"></path>
                <path d="M52.0464979,18.462235 C51.7252708,20.8464676 50.0722768,21.9038659 47.8751698,21.9038659 C45.44562,21.9038659 44.4640585,20.4191924 44.4640585,18.6000358 C44.4640585,16.0598138 46.1259926,14.3386901 48.6930349,14.3386901 C50.9209699,14.3386901 52.1035296,15.754309 52.1035296,17.572849 C52.1035296,18.0152299 52.102913,18.0454413 52.0464979,18.462235 L52.0464979,18.462235 L52.0464979,18.462235 L52.0464979,18.462235 L52.0464979,18.462235 Z M49.8349017,17.5451038 C49.8349017,16.7953684 49.5327879,16.0872507 48.6520338,16.0872507 C47.5567172,16.0872507 46.8772694,17.391889 46.8772694,18.5445456 C46.8772694,19.5156256 47.3427713,20.1691778 48.1103869,20.1553053 C48.576197,20.1553053 49.5682401,19.5159339 49.7649223,18.4008874 C49.8108559,18.140083 49.8349017,17.8546163 49.8349017,17.5451038 L49.8349017,17.5451038 L49.8349017,17.5451038 L49.8349017,17.5451038 L49.8349017,17.5451038 Z" fill="#FFFFFF"></path>
            </g>
        </g>
    </g>
</svg>