<?xml version="1.0" encoding="UTF-8" standalone="no"?>
<svg width="88px" height="56px" viewBox="0 0 88 56" version="1.1" xmlns="http://www.w3.org/2000/svg" xmlns:xlink="http://www.w3.org/1999/xlink" xmlns:sketch="http://www.bohemiancoding.com/sketch/ns">
    <!-- Generator: Sketch 3.0.1 (7597) - http://www.bohemiancoding.com/sketch -->
    <title>BTUICardDiscover</title>
    <description>Created with Sketch.</description>
    <defs></defs>
    <g id="Page-1" stroke="none" stroke-width="1" fill="none" fill-rule="evenodd" sketch:type="MSPage">
        <g id="Discover" sketch:type="MSLayerGroup" transform="translate(0.500000, 0.500000)">
            <g transform="translate(9.000000, 22.000000)" id="Group" sketch:type="MSShapeGroup">
                <g transform="translate(0.500000, -0.500000)">
                    <path d="M3.13374718,0 L0,0 L0,11 L3.11724041,11 C4.77109199,11 5.96740971,10.6055378 7.01664786,9.73099042 C8.26163939,8.69158679 9,7.12481363 9,5.50543131 C9,2.25772098 6.58937641,0 3.13374718,0 L3.13374718,0 L3.13374718,0 L3.13374718,0 Z M5.7396329,8.15689317 C5.01812826,8.74567439 4.08950827,9 2.61341491,9 L2,9 L2,2 L2.61341491,2 C4.08950827,2 4.98277816,2.2383406 5.7396329,2.85663261 C6.52934512,3.49152443 7,4.47460257 7,5.48985567 C7,6.50715812 6.52934512,7.52466552 5.7396329,8.15689317 L5.7396329,8.15689317 Z" id="Fill-236" fill="#0B1015"></path>
                    <path d="M10,0 L12,0 L12,11 L10,11 L10,11 L10,0 L10,0 Z" id="Fill-237" fill="#0B1015"></path>
                    <path d="M17.0853597,4.23028127 C15.8991484,3.7717092 15.5500896,3.46926855 15.5500896,2.90081107 C15.5500896,2.23474589 16.1715318,1.72808617 17.023392,1.72808617 C17.6156152,1.72808617 18.101552,1.98141603 18.6194532,2.58179552 L19.6507452,1.17374805 C18.8004538,0.395546544 17.7830849,0 16.6733528,0 C14.8831522,0 13.5153519,1.29979909 13.5153519,3.02563435 C13.5153519,4.48463427 14.1526782,5.22886748 16.0060231,5.92787782 C16.7810119,6.2116973 17.1749776,6.4009785 17.3728429,6.53009897 C17.767593,6.79959446 17.9658505,7.17856611 17.9658505,7.62220031 C17.9658505,8.47897909 17.3122479,9.11209911 16.4301883,9.11209911 C15.4887102,9.11209911 14.7301939,8.6214004 14.2742604,7.70241461 L13,8.98748047 C13.9093176,10.3797716 15.0029695,11 16.5080401,11 C18.5580737,11 20,9.57169432 20,7.52827591 C20,5.8482774 19.3334547,5.08706005 17.0853597,4.23028127" id="Fill-238" fill="#0B1015"></path>
                    <path d="M21,5.50519685 C21,8.60170449 23.3922797,11 26.4679534,11 C27.3374358,11 28.0827923,10.8255489 29,10.3851413 L29,7.96931913 C28.1912771,8.79062529 27.4768016,9.12138953 26.5601955,9.12138953 C24.5262564,9.12138953 23.0810628,7.62163965 23.0810628,5.49011579 C23.0810628,3.47088467 24.5713749,1.87657249 26.4679534,1.87657249 C27.4292769,1.87657249 28.160396,2.22364057 29,3.06002779 L29,0.644205651 C28.1148766,0.187901806 27.3837574,0 26.5140744,0 C23.4540419,0 21,2.44679944 21,5.50519685" id="Fill-239" fill="#0B1015"></path>
                    <path d="M45.9917422,7.20498442 L43.2151057,0 L41,0 L45.4159114,11 L46.5069486,11 L51,0 L48.8012085,0 L45.9917422,7.20498442" id="Fill-240" fill="#0B1015"></path>
                    <path d="M52,11 L58,11 L58,9.13780618 L54.1138798,9.13780618 L54.1138798,6.16677316 L57.8513334,6.16677316 L57.8513334,4.30415335 L54.1138798,4.30415335 L54.1138798,1.86261981 L58,1.86261981 L58,0 L52,0 L52,11" id="Fill-241" fill="#0B1015"></path>
                    <path d="M67.0460739,3.24643237 C67.0460739,1.1857295 65.6355442,0 63.1703515,0 L60,0 L60,11 L62.1373204,11 L62.1373204,6.57912673 L62.416839,6.57912673 L65.3719315,11 L68,11 L64.5486454,6.36634718 C66.160649,6.03556976 67.0460739,4.92992545 67.0460739,3.24643237 C67.0460739,3.24643237 67.0460739,4.92992545 67.0460739,3.24643237 L67.0460739,3.24643237 L67.0460739,3.24643237 Z M62.6877591,5 L62,5 L62,2 L62.7255377,2 C64.2007822,2 65,2.50626198 65,3.46971246 C65,4.46364217 64.2007822,5 62.6877591,5 L62.6877591,5 Z" id="Fill-242" fill="#0B1015"></path>
                    <path d="M35.5,11 C38.5375661,11 41,8.53756612 41,5.5 C41,2.46243388 38.5375661,0 35.5,0 C32.4624339,0 30,2.46243388 30,5.5 C30,8.53756612 32.4624339,11 35.5,11 Z" id="Oval-1" fill="#E88137"></path>
                </g>
            </g>
        </g>
    </g>
</svg>